<?xml version="1.0" standalone="yes"?>
<svg xmlns="http://www.w3.org/2000/svg" width="459" height="594">
<path style="fill:#f0642c; stroke:none;" d="M0 0L0 594L239 594L239 545L240 545L240 594L243 594C243 575.76 238.544 549.973 244 533L239 534C244.894 527.944 252.563 530.791 260 529L261 533L259 534L258 534L257 531C256.343 534.846 257.164 537.625 261 539L261 529L284 529L284 528C272.049 528 258.986 529.916 248 525L240 529L239 497L240 497L240 520L243 520L243 451C243 440.505 240.813 429.006 247 420L247 417L241 407L243 421L243 422L243 423L241 426L240 426L236 423C236.154 420.067 236.029 418.383 233 418L234 415L231 415L232 423L228 424L225 408L225 407L229 401L232 404L234 402L241 404L241 400L244 401L244 400C240.914 395.4 243 384.553 243 379L243 323C243 315.934 240.605 305.231 246 300L245 297L242 298L243 290L247 291L243 282L241 283L242 280L236 275L238 276L238 275L233 270C229.818 252.158 211.602 231.125 201.796 216C198.026 210.186 195.119 201.603 189 198L182.141 184L162.08 151.83L94.7539 43L76.3079 13L67.6713 1.02777L48 0L0 0z"/>
<path style="fill:#f3962f; stroke:none;" d="M68 0L69 1L68 0z"/>
<path style="fill:#fefcfa; stroke:none;" d="M69 0C75.0891 16.0883 87.8575 31.2756 96.7971 46C117.368 79.8828 138.699 113.306 159.576 147C223.611 250.349 288.707 353.083 351.797 457C371.916 490.138 392.216 523.266 412.947 556C419.351 566.113 426.393 586.425 436.529 592.972C441.569 596.228 453.124 594 459 594L459 0L69 0z"/>
<path style="fill:#f3962f; stroke:none;" d="M69 2L70 3L69 2M70 3L71 4L70 3M71 5L72 6L71 5M72.3333 6.66669L72.6667 7.33331L72.3333 6.66669M73 8L74 9L73 8M74 10L75 11L74 10M75 11L76 12L75 11M76 13L77 14L76 13M77 14L78 15L77 14M78 16L79 17L78 16M79.3333 17.6667L79.6667 18.3333L79.3333 17.6667M80 19L81 20L80 19M81 21L82 22L81 21M82.3333 22.6667L82.6667 23.3333L82.3333 22.6667M275 78L292 65.3102L299 61L303 61L303 60C294.469 60.3718 287.465 63.5039 281 69L296 26L302 26C295.852 19.7522 291.969 27.2643 290.003 33C284.919 47.8344 278.539 62.7029 275 78M83 24L84 25L83 24z"/>
<path style="fill:#f0642c; stroke:none;" d="M299 25L300 26L299 25z"/>
<path style="fill:#f3962f; stroke:none;" d="M84 26L85 27L84 26z"/>
<path style="fill:#fefcfa; stroke:none;" d="M296 26C291.039 38.0946 280.704 55.9258 281 69C291.367 62.6077 299.587 58.6956 312 61C309.3 52.7028 304.681 28.7333 296 26z"/>
<path style="fill:#f0642c; stroke:none;" d="M300 26L301 30L302 30L303 30L300 26z"/>
<path style="fill:#f3962f; stroke:none;" d="M85.3333 27.6667L85.6667 28.3333L85.3333 27.6667M302 27L303 28L302 27M300.667 28.3333L301.333 28.6667L300.667 28.3333M86 29L87 30L86 29M303 29L301 32L305 36L306 36L303 29z"/>
<path style="fill:#f0642c; stroke:none;" d="M302 31L311 62L299 61L299 62C302.995 63.1804 308.475 61.8135 311.945 64.2377C316.311 67.2878 316.58 79.549 323.895 77.8781C327.253 77.111 328.447 73.0013 326.957 70.1736C324.41 65.3416 317.938 64.3383 314.898 59.8951C309.019 51.301 309.465 38.4734 302 31z"/>
<path style="fill:#f3962f; stroke:none;" d="M88 32L89 33L88 32M302.333 33.6667L302.667 34.3333L302.333 33.6667M89 34L90 35L89 34M90 35L91 36L90 35M358.667 35.3333L359.333 35.6667L358.667 35.3333M409.667 35.3333L410.333 35.6667L409.667 35.3333M303.333 36.6667L303.667 37.3333L303.333 36.6667z"/>
<path style="fill:#656668; stroke:none;" d="M326 36L332 48L333 48L326 36M333 36L333 44L334 44L333 36M342 36C341.981 41.3676 341.716 45.3418 336 47L336 48C342.531 47.2546 344.46 41.8651 342 36M344 36L344 37L348 37L348 48L349 48L349 37L353 37L344 36z"/>
<path style="fill:#272429; stroke:none;" d="M348 36L349 37L348 36z"/>
<path style="fill:#656668; stroke:none;" d="M356.229 37.0316C350.196 40.6465 355.543 50.3165 361.852 46.8055C368.335 43.1979 362.787 33.1025 356.229 37.0316z"/>
<path style="fill:#f3962f; stroke:none;" d="M362 36L363 37L362 36z"/>
<path style="fill:#656668; stroke:none;" d="M367 36L367 47L368 47L368 39L369 39L373 44L378 36L371 42L367 36z"/>
<path style="fill:#f3962f; stroke:none;" d="M384 36L386 38L384 36z"/>
<path style="fill:#656668; stroke:none;" d="M385 36L386 37L385 36M390 36L390 37L394 37L394 48L395 48L395 37L399 37L390 36z"/>
<path style="fill:#272429; stroke:none;" d="M401 36L402 37L401 36z"/>
<path style="fill:#656668; stroke:none;" d="M415 39L414 39C415.404 55.6986 396.177 34.3322 414 38C409.26 34.4327 401.544 38.6035 405.184 44.7716C409.32 51.7828 416.473 45.0977 415 39M417 36L427 47L427 36L426 36L426 45L425 45L417 36z"/>
<path style="fill:#f3962f; stroke:none;" d="M91 37L92 38L91 37M306 37L306 40L307 40L306 37M328 37L329 38L328 37M356 37L357 38L356 37z"/>
<path style="fill:#fefcfa; stroke:none;" d="M357.314 37.7616C352.825 39.8302 355.927 48.1954 360.856 45.8634C365.957 43.4499 362.599 35.3259 357.314 37.7616z"/>
<path style="fill:#272429; stroke:none;" d="M367 37L368 38L367 37M377.333 37.6667L377.667 38.3333L377.333 37.6667z"/>
<path style="fill:#656668; stroke:none;" d="M384 37L381 45L382 45L384 37M386.333 37.6667L386.667 38.3333L386.333 37.6667M401 37L402 38L401 37z"/>
<path style="fill:#f3962f; stroke:none;" d="M405 37L406 38L405 37z"/>
<path style="fill:#fefcfa; stroke:none;" d="M407.434 38.0432C402.592 41.2189 408.008 49.1117 412.678 45.3773C417.118 41.8272 412.093 34.9867 407.434 38.0432z"/>
<path style="fill:#f3962f; stroke:none;" d="M412 37L413 38L412 37M304 38L304 41L305 41L304 38M325.667 38.3333L326.333 38.6667L325.667 38.3333z"/>
<path style="fill:#fefcfa; stroke:none;" d="M327 38L325 43L330 43L327 38z"/>
<path style="fill:#f3962f; stroke:none;" d="M364 38L365 39L364 38M369 38L370 39L369 38M376 38L377 39L376 38z"/>
<path style="fill:#fefcfa; stroke:none;" d="M385 38L383 43L388 43L385 38z"/>
<path style="fill:#272429; stroke:none;" d="M401 38L402 39L401 38M414 38L415 39L414 38z"/>
<path style="fill:#f3962f; stroke:none;" d="M417 38L417 48L418 48C419.02 44.5499 419.927 40.558 417 38M420 38L421 39L420 38M92 39L93 40L92 39z"/>
<path style="fill:#656668; stroke:none;" d="M325 39L322 47L323 47L325 39z"/>
<path style="fill:#f3962f; stroke:none;" d="M363 39L364 40L363 39M374 39L375 40L374 39z"/>
<path style="fill:#656668; stroke:none;" d="M377 39L377 42L378 42L377 39z"/>
<path style="fill:#f3962f; stroke:none;" d="M386.667 39.3333L387.333 39.6667L386.667 39.3333z"/>
<path style="fill:#656668; stroke:none;" d="M401.333 39.6667L401.667 40.3333L401.333 39.6667z"/>
<path style="fill:#f3962f; stroke:none;" d="M405 39L406 40L405 39M415 39L416 40L415 39M93.3333 40.6667L93.6667 41.3333L93.3333 40.6667M307.333 40.6667L307.667 41.3333L307.333 40.6667M324 40L325 41L324 40M369 40L370 41L369 40M373 40L374 41L373 40z"/>
<path style="fill:#656668; stroke:none;" d="M387 40L390 48L391 48L387 40M417.333 40.6667L417.667 41.3333L417.333 40.6667z"/>
<path style="fill:#f3962f; stroke:none;" d="M330 41L331 42L330 41M354.333 41.6667L354.667 42.3333L354.333 41.6667M365 41L366 42L365 41M371 41L372 42L371 41M383 41L384 42L383 41M387 41L388 42L387 41z"/>
<path style="fill:#272429; stroke:none;" d="M401 41L402 42L401 41z"/>
<path style="fill:#f3962f; stroke:none;" d="M421 41L422 42L421 41M94 42L95 43L94 42M305 42L306 43L305 42M323 42L324 43L323 42M373 42L374 43L373 42z"/>
<path style="fill:#272429; stroke:none;" d="M377.333 42.6667L377.667 43.3333L377.333 42.6667z"/>
<path style="fill:#f3962f; stroke:none;" d="M400 42L401 43L400 42z"/>
<path style="fill:#656668; stroke:none;" d="M401.333 42.6667L401.667 43.3333L401.333 42.6667z"/>
<path style="fill:#f3962f; stroke:none;" d="M95 43L96 44L95 43M308 43L309 44L308 43M324 44L324 45L330 45L324 44M353 43L354 44L353 43M371 43L372 44L371 43M382 44L382 45L389 45L382 44z"/>
<path style="fill:#656668; stroke:none;" d="M386 43L387 44L386 43M417 43L417 47L418 47L417 43z"/>
<path style="fill:#f3962f; stroke:none;" d="M424 43L425 44L424 43M306.333 44.6667L306.667 45.3333L306.333 44.6667M322 44L323 45L322 44M331 44L332 45L331 44M333.667 44.3333L334.333 44.6667L333.667 44.3333z"/>
<path style="fill:#656668; stroke:none;" d="M377 44L378 45L377 44z"/>
<path style="fill:#272429; stroke:none;" d="M401 44L402 45L401 44z"/>
<path style="fill:#f3962f; stroke:none;" d="M404 44L405 45L404 44M415 44L416 45L415 44M96.3333 45.6667L96.6667 46.3333L96.3333 45.6667M309.333 45.6667L309.667 46.3333L309.333 45.6667z"/>
<path style="fill:#656668; stroke:none;" d="M334 45L336 47L334 45z"/>
<path style="fill:#f3962f; stroke:none;" d="M342 45L343 46L342 45M362 45L363 46L362 45z"/>
<path style="fill:#272429; stroke:none;" d="M377.333 45.6667L377.667 46.3333L377.333 45.6667z"/>
<path style="fill:#f3962f; stroke:none;" d="M380.667 45.3333L381.333 45.6667L380.667 45.3333M390 45L391 46L390 45z"/>
<path style="fill:#656668; stroke:none;" d="M401 45L402 46L401 45z"/>
<path style="fill:#f3962f; stroke:none;" d="M406 45L407 46L406 45M424 45L425 46L424 45M307 46L307 49L308 49L307 46M334 46L335 47L334 46M357 46L358 47L357 46z"/>
<path style="fill:#656668; stroke:none;" d="M380.333 46.6667L380.667 47.3333L380.333 46.6667z"/>
<path style="fill:#f3962f; stroke:none;" d="M389 46L390 47L389 46z"/>
<path style="fill:#272429; stroke:none;" d="M401 46L402 47L401 46z"/>
<path style="fill:#f3962f; stroke:none;" d="M425 46L426 47L425 46M97 47L98 48L97 47M321.667 47.3333L322.333 47.6667L321.667 47.3333M340 47L341 48L340 47M361 47L362 48L361 47M367 47L368 48L367 47z"/>
<path style="fill:#656668; stroke:none;" d="M377 47L378 48L377 47M401 47L402 48L401 47z"/>
<path style="fill:#f3962f; stroke:none;" d="M407 47L408 48L407 47M412 47L413 48L412 47M426 47L427 48L426 47M98 48L99 49L98 48M310.333 48.6667L310.667 49.3333L310.333 48.6667M99 50L100 51L99 50M308 50L309 51L308 50M331 50L332 51L331 50z"/>
<path style="fill:#656668; stroke:none;" d="M331 51L331 52L335 52L331 51M340 50L341 53L342 53L341 51L342 51L346 57C346.194 53.1727 343.461 51.0585 340 50M348 50L348 58L349 58L349 51L350 51L350 53C351.118 50.8603 350.251 50.4733 348 50M352 50L353 53L354 53L355 51L352 50z"/>
<path style="fill:#f3962f; stroke:none;" d="M360 50L361 51L360 50z"/>
<path style="fill:#656668; stroke:none;" d="M359 53L363 52L363 51L359 53z"/>
<path style="fill:#f3962f; stroke:none;" d="M363 50L364 51L363 50z"/>
<path style="fill:#656668; stroke:none;" d="M364 50L364 51L367 52L364 50z"/>
<path style="fill:#f3962f; stroke:none;" d="M366 50L367 51L366 50M371 50L372 51L371 50z"/>
<path style="fill:#656668; stroke:none;" d="M371 52L374 51L371 52M379.667 50.3333L380.333 50.6667L379.667 50.3333z"/>
<path style="fill:#f3962f; stroke:none;" d="M381.333 50.6667L381.667 51.3333L381.333 50.6667M383 50L384 51L383 50z"/>
<path style="fill:#656668; stroke:none;" d="M384 50L383 62L384 62L386 51L384 50M391 50L391 51C393.758 54.6454 392.691 58.0089 391 62L394 62C394 57.614 395.033 52.6146 391 50z"/>
<path style="fill:#f3962f; stroke:none;" d="M393 50L394 51L393 50M395 50L396 63L397 63L395 50z"/>
<path style="fill:#656668; stroke:none;" d="M396 50L405 53L396 50z"/>
<path style="fill:#f3962f; stroke:none;" d="M404 50L405 51L404 50z"/>
<path style="fill:#656668; stroke:none;" d="M407 50L407 51L414 51L407 50z"/>
<path style="fill:#f3962f; stroke:none;" d="M414 50L415 51L414 50M418.333 50.6667L418.667 51.3333L418.333 50.6667z"/>
<path style="fill:#656668; stroke:none;" d="M419 50L419 51L427 51L419 50z"/>
<path style="fill:#f3962f; stroke:none;" d="M427 50L427 53L428 53L427 50M311.333 51.6667L311.667 52.3333L311.333 51.6667z"/>
<path style="fill:#272429; stroke:none;" d="M332 51L328 62L329 62C332.096 59.113 333.904 59.113 337 62L338 62L334 51L332 51M341 51L342 53L340 52L341 62L342 62L342 55L351 62L350 51L349 51L349 58L341 51M353 51L356 54L359 59L362 51L359 55L353 51z"/>
<path style="fill:#f3962f; stroke:none;" d="M355 51L356 52L355 51z"/>
<path style="fill:#272429; stroke:none;" d="M364 51L370 62L369 59L373 54L375 61C379.325 59.7402 379.862 54.9664 381 51L377 58L376 58L374 51L372 51L369 59L364 51z"/>
<path style="fill:#f3962f; stroke:none;" d="M378 51L379 52L378 51z"/>
<path style="fill:#272429; stroke:none;" d="M384 51L384 62L385 62L385 57L392 58L391 61L392 61C393.02 57.5499 393.927 53.558 391 51L392 55L385 55L386 51L384 51M396 51L396 62L404 62L398 60L398 57L403 57L403 56L398 56L396 51M398 51L398 52L404 52L398 51M407 51L408 62L409 62L409 58L416 62C413.761 54.5994 416.685 51.0344 407 51z"/>
<path style="fill:#656668; stroke:none;" d="M415 51L416 56L417 56L415 51z"/>
<path style="fill:#272429; stroke:none;" d="M419 51L419 62L427 62L427 60L420 60L426 57L426 56L420 55L420 53L427 52L419 51z"/>
<path style="fill:#f3962f; stroke:none;" d="M309.333 52.6667L309.667 53.3333L309.333 52.6667M344 52L345 53L344 52z"/>
<path style="fill:#656668; stroke:none;" d="M355 52L356 53L355 52M364 52L365 53L364 52M374 52L375 53L374 52M378.333 52.6667L378.667 53.3333L378.333 52.6667M380 52L380 55L381 55L380 52M409 52L409 53L414 53L409 52z"/>
<path style="fill:#f3962f; stroke:none;" d="M416 52L417 53L416 52z"/>
<path style="fill:#656668; stroke:none;" d="M418 52L418 60L419 60L418 52M421 52L421 53L427 53L421 52z"/>
<path style="fill:#f3962f; stroke:none;" d="M101 53L102 54L101 53z"/>
<path style="fill:#656668; stroke:none;" d="M330.333 53.6667L330.667 54.3333L330.333 53.6667M333 53L331 58L335 57L333 53M335.333 53.6667L335.667 54.3333L335.333 53.6667z"/>
<path style="fill:#f3962f; stroke:none;" d="M353 53L354 54L353 53z"/>
<path style="fill:#656668; stroke:none;" d="M356 53L357 54L356 53z"/>
<path style="fill:#f3962f; stroke:none;" d="M358 53L357 55L358 53z"/>
<path style="fill:#656668; stroke:none;" d="M361 53L362 54L361 53z"/>
<path style="fill:#f3962f; stroke:none;" d="M364 53L365 54L364 53M367 53L368 54L367 53z"/>
<path style="fill:#656668; stroke:none;" d="M370 53L370 56L371 56L370 53z"/>
<path style="fill:#f3962f; stroke:none;" d="M409.333 53.6667L409.667 54.3333L409.333 53.6667z"/>
<path style="fill:#fefcfa; stroke:none;" d="M410 56L414 53L410 56z"/>
<path style="fill:#656668; stroke:none;" d="M420.333 53.6667L420.667 54.3333L420.333 53.6667z"/>
<path style="fill:#f3962f; stroke:none;" d="M312.333 54.6667L312.667 55.3333L312.333 54.6667z"/>
<path style="fill:#656668; stroke:none;" d="M340 54L341 55L340 54M354.667 54.3333L355.333 54.6667L354.667 54.3333M358 54L359 55L358 54M360 54L359 57L360 57L360 54M366 54L368 56L368 54L366 54M372 54L374 60L375 60L372 54z"/>
<path style="fill:#f3962f; stroke:none;" d="M375 54L376 55L375 54z"/>
<path style="fill:#656668; stroke:none;" d="M385 54L386 55L385 54M391 54L392 55L391 54M414 54L415 55L414 54z"/>
<path style="fill:#f3962f; stroke:none;" d="M102 55L102 57L104 57L102 55z"/>
<path style="fill:#656668; stroke:none;" d="M329.333 55.6667L329.667 56.3333L329.333 55.6667z"/>
<path style="fill:#fefcfa; stroke:none;" d="M332 55L332 57L334 57L332 55z"/>
<path style="fill:#f3962f; stroke:none;" d="M333 55L334 56L333 55M336 55L337 56L336 55z"/>
<path style="fill:#656668; stroke:none;" d="M342 55L342 62L343 62L344 55L342 55M350 55L350 58L351 58L350 55z"/>
<path style="fill:#f3962f; stroke:none;" d="M360 55L361 56L360 55z"/>
<path style="fill:#656668; stroke:none;" d="M365 55L366 56L365 55M375.333 55.6667L375.667 56.3333L375.333 55.6667M377.333 55.6667L377.667 56.3333L377.333 55.6667M386 55L386 56L391 56L386 55M398 55L398 56L403 58C404.235 54.7249 400.499 55.0414 398 55M409 55L414 57L414 56L409 55z"/>
<path style="fill:#f3962f; stroke:none;" d="M413 55L414 56L413 55z"/>
<path style="fill:#656668; stroke:none;" d="M421 55L421 56L427 57L421 55z"/>
<path style="fill:#f3962f; stroke:none;" d="M310 56L311 57L310 56M313 56L314 57L313 56z"/>
<path style="fill:#656668; stroke:none;" d="M336 56L337 57L336 56M340 56L340 60L341 60L340 56M344 56L345 57L344 56z"/>
<path style="fill:#f3962f; stroke:none;" d="M355 56L356 57L355 56M365 56L366 57L365 56M368.333 56.6667L368.667 57.3333L368.333 56.6667z"/>
<path style="fill:#656668; stroke:none;" d="M369.333 56.6667L369.667 57.3333L369.333 56.6667M379 56L380 57L379 56M415 56L415 61L416 61L415 56z"/>
<path style="fill:#f3962f; stroke:none;" d="M328 57L329 58L328 57z"/>
<path style="fill:#656668; stroke:none;" d="M356 57L356 62L357 62L359 60L359 59L356 57M371 57L372 58L371 57z"/>
<path style="fill:#f3962f; stroke:none;" d="M373 57L374 58L373 57z"/>
<path style="fill:#656668; stroke:none;" d="M376 57L377 58L376 57z"/>
<path style="fill:#f3962f; stroke:none;" d="M379 57L380 58L379 57z"/>
<path style="fill:#656668; stroke:none;" d="M385 59L391 58L385 59M398 57L399 58L398 57z"/>
<path style="fill:#f3962f; stroke:none;" d="M399 57L399 58L403 58L399 57M415 57L416 58L415 57z"/>
<path style="fill:#656668; stroke:none;" d="M421 57L422 58L421 57z"/>
<path style="fill:#f3962f; stroke:none;" d="M422 57L422 58L427 58L422 57M104 58L105 59L104 58M311.333 58.6667L311.667 59.3333L311.333 58.6667z"/>
<path style="fill:#656668; stroke:none;" d="M328 58L329 59L328 58M337 58L338 59L337 58z"/>
<path style="fill:#f3962f; stroke:none;" d="M345 58L346 59L345 58z"/>
<path style="fill:#656668; stroke:none;" d="M366 58L367 59L366 58M368 58L369 59L368 58M378.333 58.6667L378.667 59.3333L378.333 58.6667M391 58L392 59L391 58M409 58L409 59L412 59L409 58M420.333 58.6667L420.667 59.3333L420.333 58.6667z"/>
<path style="fill:#f3962f; stroke:none;" d="M314.333 59.6667L314.667 60.3333L314.333 59.6667z"/>
<path style="fill:#656668; stroke:none;" d="M330 59L330 60L336 60L330 59M346 59L347 60L346 59M350 59L351 60L350 59z"/>
<path style="fill:#f3962f; stroke:none;" d="M366 59L367 60L366 59z"/>
<path style="fill:#656668; stroke:none;" d="M369 59L371 61L371 59L369 59z"/>
<path style="fill:#f3962f; stroke:none;" d="M409 59L409 62L410 62L409 59z"/>
<path style="fill:#656668; stroke:none;" d="M412 59L413 60L412 59z"/>
<path style="fill:#f3962f; stroke:none;" d="M415 59L416 60L415 59M105 60L106 61L105 60M304 60L304 61L310 61L304 60z"/>
<path style="fill:#656668; stroke:none;" d="M327.333 60.6667L327.667 61.3333L327.333 60.6667M338.333 60.6667L338.667 61.3333L338.333 60.6667M347 60L348 61L347 60z"/>
<path style="fill:#272429; stroke:none;" d="M357 60L357 62L359 62L359 60L357 60z"/>
<path style="fill:#656668; stroke:none;" d="M367.333 60.6667L367.667 61.3333L367.333 60.6667z"/>
<path style="fill:#f3962f; stroke:none;" d="M378 60L379 61L378 60z"/>
<path style="fill:#656668; stroke:none;" d="M404.333 60.6667L404.667 61.3333L404.333 60.6667M413.333 60.6667L413.667 61.3333L413.333 60.6667z"/>
<path style="fill:#f3962f; stroke:none;" d="M418 60L419 61L418 60z"/>
<path style="fill:#656668; stroke:none;" d="M427.333 60.6667L427.667 61.3333L427.333 60.6667z"/>
<path style="fill:#f3962f; stroke:none;" d="M106 61L107 62L106 61z"/>
<path style="fill:#656668; stroke:none;" d="M310 61L311 62L310 61z"/>
<path style="fill:#f3962f; stroke:none;" d="M315 61L316 62L315 61z"/>
<path style="fill:#656668; stroke:none;" d="M329 61L330 62L329 61M336 61L337 62L336 61M340 61L341 62L340 61z"/>
<path style="fill:#f3962f; stroke:none;" d="M370 61L371 62L370 61z"/>
<path style="fill:#656668; stroke:none;" d="M375 61L375 62L378 62L375 61M385 61L386 62L385 61z"/>
<path style="fill:#272429; stroke:none;" d="M392 61L393 62L392 61z"/>
<path style="fill:#656668; stroke:none;" d="M401 61L402 62L401 61M407 61L408 62L407 61M416 61L417 62L416 61M418 61L419 62L418 61M309 62L310 63L309 62z"/>
<path style="fill:#f3962f; stroke:none;" d="M316 62L317 63L316 62M327.667 62.3333L328.333 62.6667L327.667 62.3333M338 62L339 63L338 62M340 62L341 63L340 62M349 62L350 63L349 62M358 62L359 63L358 62M368.667 62.3333L369.333 62.6667L368.667 62.3333M375 62L375 63L378 63L375 62M384 62L385 63L384 62M391 62L392 63L391 62M398.667 62.3333L399.333 62.6667L398.667 62.3333M401.667 62.3333L402.333 62.6667L401.667 62.3333M407.667 62.3333L408.333 62.6667L407.667 62.3333M416 62L417 63L416 62M422 62L423 63L422 62M424 62L424 63L427 63L424 62M107 63L108 64L107 63M308 63L308 64L311 64L308 63M318 63L319 64L318 63M108.333 64.6667L108.667 65.3333L108.333 64.6667M313 64L314 65L313 64M320 64L321 65L320 64M322 65L323 66L322 65M109 66L110 67L109 66M314.333 66.6667L314.667 67.3333L314.333 66.6667M317 66L317 69L318 69L319 66L317 66M323 66L324 67L323 66z"/>
<path style="fill:#fefcfa; stroke:none;" d="M318 67C320.25 80.0087 329.068 71.3392 318 67z"/>
<path style="fill:#f3962f; stroke:none;" d="M320 67L321 68L320 67M324 67L325 68L324 67M370 70L371 70L374 68L370 70M110 68L111 69L110 68M321 68L322 69L321 68M406 68L406 71L407 71L406 68M111 69L112 70L111 69M315.333 69.6667L315.667 70.3333L315.333 69.6667M323 69L324 70L323 69M382 69L382 70L385 71L382 69M386 72L387 72L389 70C386.86 68.8823 386.473 69.7491 386 72M391 69L393 72L391 69M394 69L394 72L395 72L394 69M396 69L396 72L397 72L396 69M398 69L400 72L400 69L398 69M401 69L402 70L401 69M403 69L404 72L405 72L405 69L403 69M318 70L319 71L318 70M324 70L325 71L324 70M375 70L377 72L375 70M378.333 70.6667L378.667 71.3333L378.333 70.6667M112 71L113 72L112 71M325 71L325 75L326 75L325 71M371 71L372 72L371 71M373 71L374 72L373 71M382 71L383 72L382 71M402 71L403 72L402 71M316 72L317 73L316 72M319 72L320 73L319 72M328.333 72.6667L328.667 73.3333L328.333 72.6667M113 73L114 74L113 73M114 74L115 75L114 74M317.333 74.6667L317.667 75.3333L317.333 74.6667M320 75L321 76L320 75M324 75L325 76L324 75M327.333 75.6667L327.667 76.3333L327.333 75.6667M115 76L116 77L115 76M318 76L319 77L318 76M116 77L117 78L116 77M319 77L320 78L319 77M326 77L327 78L326 77M321 78L322 79L321 78M323.667 78.3333L324.333 78.6667L323.667 78.3333M117 79L118 80L117 79M118.333 80.6667L118.667 81.3333L118.333 80.6667M119 82L120 83L119 82M120 84L121 85L120 84M121.333 85.6667L121.667 86.3333L121.333 85.6667M122 87L123 88L122 87M124 90L125 91L124 90M125 92L126 93L125 92M126.333 93.6667L126.667 94.3333L126.333 93.6667M127 95L128 96L127 95M128 97L129 98L128 97M129 98L130 99L129 98M130 100L131 101L130 100M131.333 101.667L131.667 102.333L131.333 101.667M132 103L133 104L132 103M133.333 104.667L133.667 105.333L133.333 104.667M134.333 106.667L134.667 107.333L134.333 106.667M135 108L136 109L135 108M136.333 109.667L136.667 110.333L136.333 109.667M137 111L138 112L137 111M138 113L139 114L138 113M139.333 114.667L139.667 115.333L139.333 114.667M140 116L141 117L140 116M141 118L142 119L141 118M142.333 119.667L142.667 120.333L142.333 119.667M143 121L144 122L143 121M353 170L353 169L347 165L355 164L355 163C349.485 162.999 338.414 163.795 334.777 158.581C330.385 152.284 343.441 132.496 350 131.631C353.491 131.171 357.36 136.143 360 138C356.986 133.725 353.592 129.21 348 130L347 129C352.737 117.517 359.436 130.98 366 136C363.122 131.399 356.441 120.983 350.004 121.867C339.518 123.307 331.026 142.263 328.641 151C327.689 154.49 326.003 159.376 328.029 162.775C332.002 169.446 346.221 169.465 353 170M407 170L407 169L400 166L408 164L408 163L386 159C389.073 147.248 393.771 137.207 404 130L404 129L401 130L399 129C404.765 119.674 409.452 127.392 416 132C402.8 113.273 389.111 129.952 383.348 146C381.69 150.616 378.045 158.354 381.144 163.072C385.416 169.576 400.066 169.857 407 170M144.333 122.667L144.667 123.333L144.333 122.667z"/>
<path style="fill:#f0642c; stroke:none;" d="M347 129L348 130C355.886 130.336 371.801 150.279 366.932 158.606C363.738 164.069 352.356 163.373 347 165C350.741 170.473 356.195 168.768 362 167.75C365.8 167.084 371.772 166.327 373.933 162.61C375.687 159.591 373.593 155.014 372.706 152C370.004 142.822 362.761 125.69 352.069 123.404C348.679 122.679 347.879 126.597 347 129M399 129L401 130C408.934 130.808 425.146 149.889 419.932 158.581C417.098 163.307 404.979 164.405 400 166C403.409 170.727 409.958 168.702 415 167.738C418.499 167.07 424.941 165.995 426.883 162.582C428.485 159.766 426.627 154.866 425.842 152C423.432 143.206 415.364 124.939 405.054 123.175C401.661 122.595 400.06 126.506 399 129z"/>
<path style="fill:#f3962f; stroke:none;" d="M145 124L146 125L145 124z"/>
<path style="fill:#f0642c; stroke:none;" d="M399 125L400 126L399 125z"/>
<path style="fill:#f3962f; stroke:none;" d="M146 126L147 127L146 126M147.333 127.667L147.667 128.333L147.333 127.667M148 129L149 130L148 129M149.333 130.667L149.667 131.333L149.333 130.667z"/>
<path style="fill:#f0642c; stroke:none;" d="M344 130L346 132L344 130z"/>
<path style="fill:#fefcfa; stroke:none;" d="M368 159C367.083 154.568 365.941 150.16 364.124 146C362.095 141.353 356.222 130.187 350 130.921C343.038 131.743 330.274 151.814 334.118 158.581C337.164 163.942 349.876 163.343 355 162.714C359.639 162.144 363.858 161.171 368 159z"/>
<path style="fill:#f0642c; stroke:none;" d="M398 130L399 131L398 130z"/>
<path style="fill:#fefcfa; stroke:none;" d="M386 159C396.509 164.51 410.491 164.51 421 159C419.42 150.879 414.254 132.132 404 130.921C393.582 129.692 387.422 151.693 386 159z"/>
<path style="fill:#f3962f; stroke:none;" d="M405 130L406 131L405 130M406 131L407 132L406 131M150 132L151 133L150 132M407 132L408 133L407 132M151.333 133.667L151.667 134.333L151.333 133.667M408 133L409 134L408 133M416 133L417 134L416 133z"/>
<path style="fill:#656668; stroke:none;" d="M340 159L352.985 152.192L362.393 157.828L361.718 153.59L352 134C344.641 136.377 341.843 152.108 340 159M393 159C400.431 153.833 407.96 147.676 413 159L416.084 155.956L410.709 148.896L405 134C397.763 136.343 394.822 152.187 393 159z"/>
<path style="fill:#f3962f; stroke:none;" d="M409 134L410 135L409 134M417 134L418 135L417 134M152 135L153 136L152 135z"/>
<path style="fill:#fefcfa; stroke:none;" d="M350 135L343 154L356 151L350 135z"/>
<path style="fill:#f3962f; stroke:none;" d="M352 135L353 136L352 135z"/>
<path style="fill:#fefcfa; stroke:none;" d="M403 135L396 154L409 151L403 135z"/>
<path style="fill:#f3962f; stroke:none;" d="M405 135L406 136L405 135M410 135L411 136L410 135M418 135L419 136L418 135M351 136L352 137L351 136M404 136L405 137L404 136M411 136L412 137L411 136M153 137L154 138L153 137M347 137L348 138L347 137M366 137L367 138L366 137M400 137L401 138L400 137M412 137L413 138L412 137M419 137L420 138L419 137M154.333 138.667L154.667 139.333L154.333 138.667M348 138L349 139L348 138M353 138L354 139L353 138M367.333 138.667L367.667 139.333L367.333 138.667M401 138L402 139L401 138M420.333 138.667L420.667 139.333L420.333 138.667M352 139L353 140L352 139M360 139L361 140L360 139M405 139L406 140L405 139M413 139L414 140L413 139M155 140L156 141L155 140M368 140L369 141L368 140M399 140L400 141L399 140M407 140L408 141L407 140M414 140L415 141L414 140M421 140L422 141L421 140M353 141L354 142L353 141M406 141L407 142L406 141M156 142L157 143L156 142M345 142L346 143L345 142M362 142L363 143L362 142M369 142L370 143L369 142M415 142L416 143L415 142M422 142L423 143L422 142M157.333 143.667L157.667 144.333L157.333 143.667M346 143L347 144L346 143M354 144L355 145L354 144M363 144L364 145L363 144M370.333 144.667L370.667 145.333L370.333 144.667M407 144L408 145L407 144M416 144L417 145L416 144M423.333 144.667L423.667 145.333L423.333 144.667M158 145L160 148L158 145M344 145L345 146L344 145M397 145L398 146L397 145M417.333 145.667L417.667 146.333L417.333 145.667M345 146L346 147L345 146M356 146L357 147L356 146M364 146L365 147L364 146M409 146L410 147L409 146M424.333 146.667L424.667 147.333L424.333 146.667M355 147L356 148L355 147M371 147L372 148L371 147M408 147L409 148L408 147M418 147L418 150L419 150L418 147M160 148L161 149L160 148M343 148L344 149L343 148M365.333 148.667L365.667 149.333L365.333 148.667M396 148L397 149L396 148M344 149L345 150L344 149M372 149L372 152L373 152L372 149M397 149L398 150L397 149M409.333 149.667L409.667 150.333L409.333 149.667M425.333 149.667L425.667 150.333L425.333 149.667M161 150L162 151L161 150M352.667 150.333L353.333 150.667L352.667 150.333M356 150L357 151L356 150M404 150L404 151L407 151L404 150M162 151L164 154L162 151M358 151L359 152L358 151M366.333 151.667L366.667 152.333L366.333 151.667M411 151L412 152L411 151M419 151L420 152L419 151M343 152L344 153L343 152M345 152L346 153L345 152M348 152L349 153L348 152M360 152L361 153L360 152M373 152L373 155L374 155L373 152M396 152L397 153L396 152M398 152L399 153L398 152M401 152L402 153L401 152M413 152L414 153L413 152M426 152L426 155L427 155L426 152M341.333 153.667L341.667 154.333L341.333 153.667M346 153L347 154L346 153M359.333 153.667L359.667 154.333L359.333 153.667M399 153L400 154L399 153M412.333 153.667L412.667 154.333L412.333 153.667z"/>
<path style="fill:#fefcfa; stroke:none;" d="M360 154L363 157L360 154z"/>
<path style="fill:#f3962f; stroke:none;" d="M363 154L364 155L363 154M367 154L367 157L368 157L367 154M394 154L395 155L394 154z"/>
<path style="fill:#fefcfa; stroke:none;" d="M413 154L416 157L413 154z"/>
<path style="fill:#f3962f; stroke:none;" d="M414 154L415 155L414 154M420 154L420 157L421 157L420 154M164 155L165 156L164 155M358 155L359 156L358 155M362 155L363 156L362 155M411 155L412 156L411 155M415 155L416 156L415 155M165 156L166 157L165 156M361 157L362 158L361 157M374.333 157.667L374.667 158.333L374.333 157.667M412 157L413 158L412 157M414 157L415 158L414 157M427 157L427 160L428 160L427 157M166 158L167 159L166 158M341 158L342 159L341 158M367 159L368 160L367 159M420 159L421 160L420 159M365 160L366 161L365 160M418 160L419 161L418 160M168 161L169 162L168 161M362.667 161.333L363.333 161.667L362.667 161.333M415 161L416 162L415 161M356 162L356 163L360 163L356 162M410 162L410 163L413 163L410 162M169 163L170 164L169 163M374 163L375 164L374 163M427 163L428 164L427 163M170 164L171 165L170 164M372.667 164.333L373.333 164.667L372.667 164.333M425 164L426 165L425 164M370.667 165.333L371.333 165.667L370.667 165.333z"/>
<path style="fill:#f0642c; stroke:none;" d="M399 165L400 166L399 165z"/>
<path style="fill:#f3962f; stroke:none;" d="M422 165L422 166L425 166L422 165M171 166L172 167L171 166M420.667 166.333L421.333 166.667L420.667 166.333M363 167L363 168L366 168L363 167M416 167L416 168L419 168L416 167M357 168L357 169L361 169L357 168M410 168L410 169L414 169L410 168M173 169L174 170L173 169M174 171L175 172L174 171M175.333 172.667L175.667 173.333L175.333 172.667M176.333 174.667L176.667 175.333L176.333 174.667M177 176L178 177L177 176M178 177L179 178L178 177M179 179L180 180L179 179M180 180L181 181L180 180M181.333 182.667L181.667 183.333L181.333 182.667M182 184L183 185L182 184M183.333 185.667L183.667 186.333L183.333 185.667M184 187L185 188L184 187M185.333 188.667L185.667 189.333L185.333 188.667z"/>
<path style="fill:#272429; stroke:none;" d="M337 188L337 199L339 199L342 192L342 199L344 199C343.951 194.825 343.971 191.24 339 192L339 188L337 188M424 188L424 190L426 190L426 188L424 188z"/>
<path style="fill:#656668; stroke:none;" d="M426.333 188.667L426.667 189.333L426.333 188.667M326 189L327 190L326 189z"/>
<path style="fill:#272429; stroke:none;" d="M327 189L327 190L330 190L330 199L332 199L335 190L327 189z"/>
<path style="fill:#f3962f; stroke:none;" d="M335 189L336 190L335 189z"/>
<path style="fill:#656668; stroke:none;" d="M356 189L356 196L357 196L356 189z"/>
<path style="fill:#272429; stroke:none;" d="M357 189C356.519 193.337 356.389 197.471 361 199L361 198C358.847 195.651 358.874 194.367 361 192L361 191L359 189L357 189z"/>
<path style="fill:#656668; stroke:none;" d="M377 189L377 194L378 194L377 189z"/>
<path style="fill:#272429; stroke:none;" d="M378 189L378 199L379 199L380 189L378 189z"/>
<path style="fill:#656668; stroke:none;" d="M380 189L381 190L380 189z"/>
<path style="fill:#272429; stroke:none;" d="M385 189L384 193C387.102 193 386 196.367 386 199L388 199L388 189L385 189z"/>
<path style="fill:#f3962f; stroke:none;" d="M186.333 190.667L186.667 191.333L186.333 190.667M329 190L329 199L330 199L329 190z"/>
<path style="fill:#656668; stroke:none;" d="M384 190L385 191L384 190M343 191L344 192L343 191z"/>
<path style="fill:#272429; stroke:none;" d="M347 191L347 192L352 193L352 194C348.526 194.577 347.577 195.526 347 199L354 199C353.513 193.901 352.469 191.422 347 191z"/>
<path style="fill:#656668; stroke:none;" d="M352 191L353 192L352 191z"/>
<path style="fill:#272429; stroke:none;" d="M364.6 192.086C361.605 194.118 364.047 200.096 367.697 197.914C371.285 195.768 368.059 189.739 364.6 192.086z"/>
<path style="fill:#656668; stroke:none;" d="M368 191L369 192L368 191z"/>
<path style="fill:#f3962f; stroke:none;" d="M381 191L382 192L381 191z"/>
<path style="fill:#272429; stroke:none;" d="M391 191L391 199L393 199L396 192L396 199L398 199L401 192L401 199L403 199C402.896 190.211 398.247 191.577 391 191z"/>
<path style="fill:#f3962f; stroke:none;" d="M402 191L403 192L402 191M405 191L406 199L407 199L405 191z"/>
<path style="fill:#272429; stroke:none;" d="M406 191C406.067 196.652 407.1 198.806 413 199L413 191L411 191L411 198L408 198L408 191L406 191M420 198L416 198L416 199C422.054 198.529 421.514 195.861 418 192L422 193C417.864 188.336 416.567 194.228 420 198M424 191L424 199L426 199L426 191L424 191z"/>
<path style="fill:#656668; stroke:none;" d="M426 191L426 199L427 199L426 191z"/>
<path style="fill:#f3962f; stroke:none;" d="M187 192L187 194L189 194L187 192z"/>
<path style="fill:#656668; stroke:none;" d="M353.333 192.667L353.667 193.333L353.333 192.667z"/>
<path style="fill:#f3962f; stroke:none;" d="M365 192L366 193L365 192z"/>
<path style="fill:#fefcfa; stroke:none;" d="M366 192L366 198L367 198L366 192z"/>
<path style="fill:#656668; stroke:none;" d="M367 192L368 193L367 192M369 192L370 193L369 192M379 194L382 193L379 194z"/>
<path style="fill:#f3962f; stroke:none;" d="M383 192L384 193L383 192z"/>
<path style="fill:#656668; stroke:none;" d="M385 192L381 196L385 194L385 199L386 199L385 192z"/>
<path style="fill:#f3962f; stroke:none;" d="M395 192L396 193L395 192M400 192L401 193L400 192M415 192L416 193L415 192M336 193L337 194L336 193M344 193L345 194L344 193z"/>
<path style="fill:#656668; stroke:none;" d="M351 193L352 194L351 193z"/>
<path style="fill:#f3962f; stroke:none;" d="M362 193L363 194L362 193z"/>
<path style="fill:#656668; stroke:none;" d="M364 193L364 196L365 196L364 193z"/>
<path style="fill:#f3962f; stroke:none;" d="M380 193L381 194L380 193z"/>
<path style="fill:#272429; stroke:none;" d="M381.333 193.667L381.667 194.333L381.333 193.667z"/>
<path style="fill:#656668; stroke:none;" d="M415 193L416 194L415 193M362.333 194.667L362.667 195.333L362.333 194.667M370.333 194.667L370.667 195.333L370.333 194.667z"/>
<path style="fill:#f3962f; stroke:none;" d="M377 194L378 195L377 194z"/>
<path style="fill:#272429; stroke:none;" d="M383 194L382 197L383 194z"/>
<path style="fill:#f3962f; stroke:none;" d="M384 194L385 195L384 194M390 194L391 195L390 194M403 194L403 197L404 197L403 194M415 194L416 195L415 194M189 195L190 196L189 195M344.333 195.667L344.667 196.333L344.333 195.667M346 195L347 196L346 195z"/>
<path style="fill:#fefcfa; stroke:none;" d="M349 195L349 198L351 198L351 195L349 195z"/>
<path style="fill:#656668; stroke:none;" d="M351.333 195.667L351.667 196.333L351.333 195.667M358 195L359 196L358 195M377 195L378 196L377 195M379 195L380 196L379 195z"/>
<path style="fill:#f3962f; stroke:none;" d="M416 195L417 196L416 195M188 196L189 197L188 196z"/>
<path style="fill:#656668; stroke:none;" d="M346.333 196.667L346.667 197.333L346.333 196.667M348 196L349 197L348 196M353 196L354 197L353 196z"/>
<path style="fill:#f3962f; stroke:none;" d="M356.333 196.667L356.667 197.333L356.333 196.667M362 196L363 197L362 196M370 196L371 197L370 196M377 196L378 197L377 196M381 196L382 197L381 196z"/>
<path style="fill:#656668; stroke:none;" d="M383 196L384 197L383 196z"/>
<path style="fill:#f3962f; stroke:none;" d="M189.667 197.333L190.333 197.667L189.667 197.333M365 197L366 198L365 197z"/>
<path style="fill:#656668; stroke:none;" d="M367 197L368 198L367 197M369 197L370 198L369 197M377.333 197.667L377.667 198.333L377.333 197.667M379.333 197.667L379.667 198.333L379.333 197.667z"/>
<path style="fill:#f3962f; stroke:none;" d="M410 197L411 198L410 197z"/>
<path style="fill:#656668; stroke:none;" d="M415.333 197.667L415.667 198.333L415.333 197.667z"/>
<path style="fill:#f3962f; stroke:none;" d="M416 197L417 198L416 197M191 198L192 199L191 198M344 198L345 199L344 198z"/>
<path style="fill:#656668; stroke:none;" d="M351 198L352 199L351 198M357 198L358 199L357 198M368 198L369 199L368 198z"/>
<path style="fill:#f3962f; stroke:none;" d="M390 198L391 199L390 198M395 198L396 199L395 198M403 198L404 199L403 198M190 199L191 200L190 199M192 200L194 203L192 200M194 203L195 204L194 203M195.333 204.667L195.667 205.333L195.333 204.667M196 206L197 207L196 206M197 208L199 211L197 208M199 211L200 212L199 211M200 212L201 216L202 216L200 212M202 216L204 219L202 216M204 219L205 220L204 219M205 221L206 222L205 221M204 222L205 223L204 222M206 222L207 223L206 222M207 224L209 227L207 224M209 227L210 228L209 227M210 229L211 230L210 229M211.333 230.667L211.667 231.333L211.333 230.667M210 232L211 233L210 232M212 232L214 235L212 232M214.333 235.667L214.667 236.333L214.333 235.667M215 237L216 238L215 237M216.333 238.667L216.667 239.333L216.333 238.667M209 239L210 240L209 239M214 239L215 240L214 239M217.333 240.667L217.667 241.333L217.333 240.667M218 242L220 245L218 242M216 243L217 244L216 243M220 245L221 246L220 245M221.333 246.667L221.667 247.333L221.333 246.667M222.333 248.667L222.667 249.333L222.333 248.667M223 250L224 251L223 250M220 251L221 252L220 251M224.333 251.667L224.667 252.333L224.333 251.667M225 253L227 258L228 258L225 253M224 255L225 256L224 255M228 258L230 261L228 258M230 261L234 270L230 261M225 263L226 264L225 263M228 263L229 264L228 263M235.333 269.667L235.667 270.333L235.333 269.667M232 270L235 272L235 271L232 270M236 271L238 274L236 271M234 273L234 275L236 275L234 273M238 274L236 275L241 279L238 274M232 279L233 280L232 279M235 279L236 280L235 279M238 279L239 280L238 279M241 279L242 280L241 279M240 280L241 281L240 280M242 280L241 283L242 280M243 282L247 291L243 290L242 298L245 297L246 300C240.312 303.914 243 315.692 243 322L243 379C243 384.047 240.767 396.299 244 400L244 401L241 400L241 404L237 404L240 413L236 414L240 423L239 423L234 415L233 418C235.963 418 236.26 420.309 236 423L240 426L241 426L243 423L243 422L243 421L241 407L247 417L247 420C240.359 427.191 243 438.88 243 448L243 520L240 520L240 497L239 497L240 529C243.426 528.352 247.193 528.765 248 525C257.485 530.973 273.055 528 284 528L284 529L261 529L261 539C257.723 537.042 256.92 534.765 257 531L258 534L259 534L261 533L260 529C253.249 529.775 243.153 527.58 239 534L244 533L242 535C246.314 553.119 243 575.384 243 594L436 594L405.872 544L324.424 412L268.681 322L243 282M240 283L241 284L240 283M238 285L240 293L241 293L240 288L244 288L241 285L241 287L238 285z"/>
<path style="fill:#f0642c; stroke:none;" d="M248 292L244 293L249 294L253 299L248 292z"/>
<path style="fill:#f3962f; stroke:none;" d="M239 295L241 297L239 295z"/>
<path style="fill:#f0642c; stroke:none;" d="M248 297L251 304L251 303L249 302L251 300L251 299L248 297z"/>
<path style="fill:#f3962f; stroke:none;" d="M239 298L240 299L239 298M240 300L241 301L240 300z"/>
<path style="fill:#f0642c; stroke:none;" d="M251 301L252 302L251 301M254 301L255 302L254 301M246 302L247 303L246 302M253 303L254 304L253 303M255 303L256 304L255 303z"/>
<path style="fill:#f3962f; stroke:none;" d="M239 305L239 402L240 402L240 334L239 305z"/>
<path style="fill:#f0642c; stroke:none;" d="M256 305L258 307L256 305M256 309L257 313L258 313L260 309L256 309M261 314L262 315L261 314M259.333 317.667L259.667 318.333L259.333 317.667M262 318L263 319L262 318M264 322L266 325L264 322M267 325L268 326L267 325M264 326L266 328L264 326M269 327L270 328L269 327M282 348L283 349L282 348z"/>
<path style="fill:#f3962f; stroke:none;" d="M208 368L209 369L208 368M212 368L213 369L212 368M107 370L107 371L113 371L107 370M58 371L58 372L61 373L62 373L61 370L58 371M70 370L70 388L71 388L70 370M82 370L81 385L82 385L82 371L83 371L82 388L83 388C84.283 382.611 85.4943 374.612 82 370M85 370L85 373L91 373L91 378L92 378L92 372L86 372L86 371L100 371L100 372L94 372L94 373L101 372L85 370M123 370L123 377L124 377L126 371L123 370M136 373L137 373L139 371L139 378L140 378L139 370L136 373M148 371L148 372L151 373L152 373L151 370L148 371M155 371L155 372L162 373L162 390L165 390L165 373L172 370L155 371M173.667 370.333L174.333 370.667L173.667 370.333M177 377L191 371C184.943 368.465 180.127 371.841 177 377M200 370L200 371L205 372L205 371L200 370M212 373L213 373L213 371L214 371L214 389L202 375L202 380L203 380L204 378C206.703 382.75 209.536 388.383 215 390L215 370L212 373z"/>
<path style="fill:#fefcfa; stroke:none;" d="M59 371L53 389L54 389C57.3167 381.704 62.5129 382.216 66 389L67 389L61 371L59 371M70 371C70 375.362 68.5937 382.81 71.179 386.566C73.5891 390.068 80.4514 389.638 82.2577 385.772C84.148 381.725 83 375.379 83 371L82 371C82 374.748 79.5257 396.711 72.179 384.771C69.6934 380.731 71.8016 375.293 70 371M86 371L86 372L92 372L92 389L94 389L94 372L100 372L86 371z"/>
<path style="fill:#f3962f; stroke:none;" d="M105 371L106 372L105 371z"/>
<path style="fill:#fefcfa; stroke:none;" d="M106.094 371.742C95.4732 376.168 102.994 392.697 113.956 388.258C125.228 383.692 117.097 367.158 106.094 371.742z"/>
<path style="fill:#f3962f; stroke:none;" d="M114.667 371.333L115.333 371.667L114.667 371.333z"/>
<path style="fill:#fefcfa; stroke:none;" d="M124 371L122 389L125 375L126 375L131 386L132 386L137 375L138 375L139 389L140 389L139 371L131 383L124 371M149 371L143 389L144 389C147.075 381.417 152.069 383.015 156 389L157 389L151 371L149 371M156 371L156 372L163 372L163 389L164 389C164 381.973 161.82 372.7 171 372L156 371M173 371L173 389L175 389L175 371L173 371M183.105 371.858C172.189 376.762 181.161 393.725 191.956 387.972C202.473 382.368 193.567 367.158 183.105 371.858z"/>
<path style="fill:#f3962f; stroke:none;" d="M192 371L193 372L192 371M195 371L196 372L195 371M198 371L199 372L198 371z"/>
<path style="fill:#fefcfa; stroke:none;" d="M200 371L200 389L202 389L202 375L214 389L214 371L213 371L213 386L212 386C209.662 380.47 205.421 373.769 200 371z"/>
<path style="fill:#f3962f; stroke:none;" d="M104 374L104 375L109 373L104 374z"/>
<path style="fill:#f0642c; stroke:none;" d="M109.015 372.892C99.7783 374.801 102.857 389.405 111.956 386.86C119.82 384.66 117.45 371.149 109.015 372.892z"/>
<path style="fill:#f3962f; stroke:none;" d="M111.667 372.333L112.333 372.667L111.667 372.333M116 372L117 373L116 372M126 372L127 373L126 372M185 372L185 373L194 376L185 372M193 372L194 373L193 372M199 372L199 382L200 382L199 372M57.3333 373.667L57.6667 374.333L57.3333 373.667M102.333 373.667L102.667 374.333L102.333 373.667M114 373L115 374L114 373M117 373L118 374L117 373M147.333 373.667L147.667 374.333L147.333 373.667M183 373L180 377L183 373z"/>
<path style="fill:#f0642c; stroke:none;" d="M184.059 374.032C176.543 378.009 182.433 389.917 189.941 386.333C198.029 382.473 192.127 369.763 184.059 374.032z"/>
<path style="fill:#f3962f; stroke:none;" d="M194 373L195 374L194 373M59 374L58 378L59 378L61 374L59 374M62.3333 374.667L62.6667 375.333L62.3333 374.667M115 374L116 375L115 374M118.333 374.667L118.667 375.333L118.333 374.667M127 374L128 375L127 374M135 374L136 375L135 374M149 374L148 378L149 378L150 376L151 379L152 379L149 374M152.333 374.667L152.667 375.333L152.333 374.667M195 374L196 375L195 374M204 374L206 376L206 374L204 374M101 375L102 376L101 375M113 375L114 376L113 375M125 375L126 376L125 375M137 375L136 378L137 375M146 375L147 378L146 375z"/>
<path style="fill:#f0642c; stroke:none;" d="M199 375L200 376L199 375z"/>
<path style="fill:#f3962f; stroke:none;" d="M212 375L212 378L213 378L212 375M56.3333 376.667L56.6667 377.333L56.3333 376.667z"/>
<path style="fill:#f0642c; stroke:none;" d="M59 376L58 381L62 381L61 376L59 376z"/>
<path style="fill:#f3962f; stroke:none;" d="M103 376L104 377L103 376M128.333 376.667L128.667 377.333L128.333 376.667M134 376L135 377L134 376z"/>
<path style="fill:#f0642c; stroke:none;" d="M149 376L148 381L152 381L149 376z"/>
<path style="fill:#f3962f; stroke:none;" d="M196.333 376.667L196.667 377.333L196.333 376.667M206.333 376.667L206.667 377.333L206.333 376.667M61 377L62 378L61 377M63 377L64 378L63 377M117 377L117 382L118 382L117 377M119 377L120 378L119 377M126 377L127 378L126 377M153 377L154 378L153 377M194 377L194 383L195 383L194 377M100 378L100 382L101 382L100 378M102 378L102 382L103 382L102 378M122 378L122 387L123 387L122 378M133 378L134 379L133 378M135.333 378.667L135.667 379.333L135.333 378.667M207 378L208 379L207 378M55 379L56 380L55 379M57 379C57.7349 382.429 61.2406 383.054 63 380L57 379M64.3333 379.667L64.6667 380.333L64.3333 379.667M127 379L128 380L127 379M129 379L130 380L129 379M145 379L146 380L145 379M147 379C147.654 382.054 149.007 381.936 152 382L152 381L147 379M177.333 379.667L177.667 380.333L177.333 379.667M197 379L198 380L197 379M208 379L209 380L208 379M132 380L133 381L132 380M134.333 380.667L134.667 381.333L134.333 380.667M152 380L153 381L152 380M154 380L155 381L154 380M209.333 380.667L209.667 381.333L209.333 380.667M212 380L211 384L212 384L212 380M54.3333 381.667L54.6667 382.333L54.3333 381.667M119.333 381.667L119.667 382.333L119.333 381.667M128.333 381.667L128.667 382.333L128.333 381.667M130 381L131 382L130 381M144.333 381.667L144.667 382.333L144.333 381.667M155 381L155 384L156 384L155 381M65.3333 382.667L65.6667 383.333L65.3333 382.667M124 382L124 385L125 385L124 382M131 382L132 383L131 382M180.333 382.667L180.667 383.333L180.333 382.667M210 382L211 383L210 382M56 383L56 384L64 384L56 383M103 383L104 384L103 383M116 383L117 384L116 383M129.333 383.667L129.667 384.333L129.333 383.667M133 383L134 384L133 383M146 383L146 384L153 384L146 383M178.333 383.667L178.667 384.333L178.333 383.667M196.333 383.667L196.667 384.333L196.333 383.667M199 383L200 384L199 383z"/>
<path style="fill:#f0642c; stroke:none;" d="M212 383L213 384L212 383z"/>
<path style="fill:#f3962f; stroke:none;" d="M71 384L72 385L71 384M91 384L91 389L92 389L91 384M101 384L102 385L101 384M118.333 384.667L118.667 385.333L118.333 384.667M138 384L138 389L139 389L138 384M143.333 384.667L143.667 385.333L143.333 384.667M145 384L145 387L146 387L145 384M153.333 384.667L153.667 385.333L153.333 384.667M181 384L182 385L181 384M183 384L185 386L183 384M193 384L194 385L193 384z"/>
<path style="fill:#656668; stroke:none;" d="M212 384L213 385L212 384z"/>
<path style="fill:#f3962f; stroke:none;" d="M53 385L54 386L53 385M55 385L56 386L55 385M64.3333 385.667L64.6667 386.333L64.3333 385.667M66 385L67 386L66 385M102.333 385.667L102.667 386.333L102.333 385.667M104 385L107 387L104 385M115 385L116 386L115 385M130 385L131 386L130 385M132 385L133 386L132 385M156.333 385.667L156.667 386.333L156.333 385.667M172 385L172 389L173 389L172 385M179.333 385.667L179.667 386.333L179.333 385.667M182 385L183 386L182 385M190 387L193 385L190 387M195 385L196 386L195 385M199.333 385.667L199.667 386.333L199.333 385.667M212 385L213 386L212 385M72.6667 386.333L73.3333 386.667L72.6667 386.333M80 386L81 387L80 386M114 386L115 387L114 386M117 386L118 387L117 386M131 386L132 387L131 386M142 386L139 390L144 390L142 386M154.333 386.667L154.667 387.333L154.333 386.667M183 386L184 387L183 386M194 386L195 387L194 386M52 387L54 390L52 387M54.3333 387.667L54.6667 388.333L54.3333 387.667M67 387L66 390L67 387M74 387L75 388L74 387M78 387L79 388L78 387M103 387L104 388L103 387M107.667 387.333L108.333 387.667L107.667 387.333M110 387L110 388L113 388L110 387M116 387L117 388L116 387M144.333 387.667L144.667 388.333L144.333 387.667M157 387L155 388C156.357 390.416 158.239 389.372 157 387M180.667 387.333L181.333 387.667L180.667 387.333M185.667 387.333L186.333 387.667L185.667 387.333M188.667 387.333L189.333 387.667L188.667 387.333M193 387L194 388L193 387M65 388L66 389L65 388M72 388L73 389L72 388M80 388L81 389L80 388M105 388L106 389L105 388M114 388L115 389L114 388M182 388L183 389L182 388M192 388L193 389L192 388M198 388L199 389L198 388M73 389L73 390L80 390L73 389M92.6667 389.333L93.3333 389.667L92.6667 389.333M107 389L107 390L114 390L107 389M122.667 389.333L123.333 389.667L122.667 389.333M173.667 389.333L174.333 389.667L173.667 389.333M183 389L183 390L191 390L183 389M200 389L202 391L202 389L200 389M210.333 390.667L210.667 391.333L210.333 390.667M212.667 391.333L213.333 391.667L212.667 391.333z"/>
<path style="fill:#f0642c; stroke:none;" d="M250 400L251 401L250 400M257 400L258 401L257 400M274 400L275 401L274 400z"/>
<path style="fill:#f3962f; stroke:none;" d="M217 401L218 402L217 401M224 401L225 402L224 401M229 401L225 407L225 408L228 424L232 423L231 419L230 419L229 423L228 423L228 404L232 404L229 401M232 401L233 402L232 401M235 401L235 402L238 403L235 401z"/>
<path style="fill:#f0642c; stroke:none;" d="M245 401L249 403L249 402L245 401M261 401L265 404L265 403L261 401z"/>
<path style="fill:#f3962f; stroke:none;" d="M185 402L186 405C179.462 405.059 177.081 406.209 177 413L178 413C178.413 407.591 180.7 405.906 186 407L185 402M211.667 402.333L212.333 402.667L211.667 402.333M233 402L233 404L235 404L233 402z"/>
<path style="fill:#f0642c; stroke:none;" d="M242.667 402.333L243.333 402.667L242.667 402.333M252 402L253 403L252 402M259 402L260 403L259 402M273 402L274 403L273 402z"/>
<path style="fill:#f3962f; stroke:none;" d="M155 403L156 404L155 403M175 403L176 404L175 403M201 403L201 404L206 404L201 403M216.667 403.333L217.333 403.667L216.667 403.333M221 403L221 404L224 406C220.489 406 216.854 405.013 216 409L217 409L226 406L226 404L221 403z"/>
<path style="fill:#f0642c; stroke:none;" d="M257 403L258 404L257 403z"/>
<path style="fill:#fefcfa; stroke:none;" d="M59 404L53 422L54 422C58.028 415.868 62.6518 414.635 66 422L67 422L61 404L59 404z"/>
<path style="fill:#f3962f; stroke:none;" d="M61 404L62 405L61 404M69 404L70 405L69 404z"/>
<path style="fill:#fefcfa; stroke:none;" d="M70 404L70 422L72 422L72 408L73 408C75.5782 413.183 79.233 420.226 85 422L84 404L83 404L83 419L82 419L72 404L70 404z"/>
<path style="fill:#f3962f; stroke:none;" d="M72 404L73 405L72 404M84 404L84 411L85 411L84 404z"/>
<path style="fill:#fefcfa; stroke:none;" d="M87 404L93 422L95 422L100 404L99 404L95 412L93 412L87 404z"/>
<path style="fill:#f3962f; stroke:none;" d="M89.3333 404.667L89.6667 405.333L89.3333 404.667M98 404L99 405L98 404M100 404L100 406L102 406L102 404L100 404z"/>
<path style="fill:#fefcfa; stroke:none;" d="M102 404L106 422L109 422L112 408L113 408L117 422L119 422L124 404L118 418L114 404L108 419L107 419L104 404L102 404z"/>
<path style="fill:#f3962f; stroke:none;" d="M111.333 404.667L111.667 405.333L111.333 404.667M126 404L126 423L129 423L129 414L128 414L128 422L127 422L126 404z"/>
<path style="fill:#fefcfa; stroke:none;" d="M127 404L127 422L128 422L128 414L140 414L140 422L141 422L141 404L140 404C139.94 409.117 135.693 417.449 129.603 411.397C127.765 409.57 127.969 406.282 127 404z"/>
<path style="fill:#f3962f; stroke:none;" d="M128 404L128 412L129 412L128 404M139 404L139 412L140 412L139 404M141 404L141 422L140 422C140 418.489 140.987 414.854 137 414L137 415L139 423L142 423L141 404M145 404C145 409.091 142.978 419.486 147 423L145 404z"/>
<path style="fill:#fefcfa; stroke:none;" d="M146 404C146 412.774 143.262 425.589 156 422L156 421L147 421L147 414L154 414L154 413C143.365 412.189 149.295 406.374 156 405L146 404M160 404L160 422L161 422L161 415L172 423C169.024 412.735 173.664 404.039 160 404z"/>
<path style="fill:#f3962f; stroke:none;" d="M168.667 404.333L169.333 404.667L168.667 404.333z"/>
<path style="fill:#fefcfa; stroke:none;" d="M175 404C175 415.017 172.468 422.136 185 423L177 421L177 414L184 414L184 413L177 413C177.207 406.674 179.919 405.147 186 405L175 404z"/>
<path style="fill:#f3962f; stroke:none;" d="M194 412L195 412L200 405C196.023 404.913 194.707 408.508 194 412z"/>
<path style="fill:#fefcfa; stroke:none;" d="M210 419C198.86 423.897 190.694 409.153 202.015 406.078C204.609 405.373 207.472 406.443 210 407C208.415 405.382 207.364 404.421 204.981 404.159C184.148 401.869 200.626 434.322 210 419z"/>
<path style="fill:#f3962f; stroke:none;" d="M208 404L210 406L210 404L208 404M212 404L213 424L214 424C214 418.751 216.135 407.613 212 404z"/>
<path style="fill:#fefcfa; stroke:none;" d="M214 404L214 423L224 422L224 421L216 421L216 414L222 414L222 413L216 413L216 406L224 406L224 404L214 404M228 404L228 423L229 423L229 416C234.619 415.064 236.158 418.725 239 423L240 423L236 414C245.27 407.954 233.916 404.005 228 404M241 404L241 405L248 406L248 423L249 423L249 406L256 405L241 404M258 404L258 422L260 422L260 404L258 404M264 404L264 422L266 414L273 414L273 413L266 413L266 406L274 406L274 404L264 404M277 404L277 422L279 422L279 404L277 404M283 404C283 413.475 280.462 426 294 422L294 421L285 421L285 414L292 414L292 413C287.371 411.955 285.384 410.952 285 406L293 406L293 404L283 404M297 404C297 408.358 295.208 417.846 298.028 421.397C305.04 430.227 321.423 409.085 305.995 404.573C303.135 403.736 299.945 404.002 297 404z"/>
<path style="fill:#f3962f; stroke:none;" d="M58.3333 405.667L58.6667 406.333L58.3333 405.667M82 405L82 419L83 419L82 405M87 405L88 406L87 405M121.333 405.667L121.667 406.333L121.333 405.667M123 405L123 408L124 408L123 405M149.667 405.333L150.333 405.667L149.667 405.333M152 405L153 406L152 405M154.667 405.333L155.333 405.667L154.667 405.333M159 405L160 406L159 405M170 405L171 406L170 405M174 405L175 406L174 405M202 405L202 406L205 406L202 405M229 406L230 413C232.809 412.909 239.788 411.757 236 408L232 410L233 412L231 407L237 407L229 406z"/>
<path style="fill:#f0642c; stroke:none;" d="M261 405L262 406L261 405z"/>
<path style="fill:#f3962f; stroke:none;" d="M62.3333 406.667L62.6667 407.333L62.3333 406.667M73 406L74 407L73 406M90 406L91 407L90 406M97 406L98 407L97 406M99.3333 406.667L99.6667 407.333L99.3333 406.667M104 406L104 409L105 409L104 406M114.333 406.667L114.667 407.333L114.333 406.667M147 406L147 412L148 412L147 406M161 406C161.048 409.986 161.06 412.416 165 414L165 413L161 406z"/>
<path style="fill:#f0642c; stroke:none;" d="M162 406C162.392 417.93 174.191 406.675 162 406z"/>
<path style="fill:#f3962f; stroke:none;" d="M167.667 406.333L168.333 406.667L167.667 406.333M193 406L194 407L193 406M199.667 406.333L200.333 406.667L199.667 406.333M206 406L207 410L210 407L206 406M210 406L211 407L210 406z"/>
<path style="fill:#f0642c; stroke:none;" d="M254.333 406.667L254.667 407.333L254.333 406.667M274 406L275 407L274 406z"/>
<path style="fill:#f3962f; stroke:none;" d="M299 406L299 421C313.019 420.873 313.04 406.05 299 406M60 407L59 410L60 410L60 407M74 407L75 408L74 407M88 407L89 408L88 407M96.3333 407.667L96.6667 408.333L96.3333 407.667M102 407L102 410L103 410L102 407M110.333 407.667L110.667 408.333L110.333 407.667M159 407L159 412L160 412L159 407M171 407L171 412L172 412L171 407M198 407L197 410L198 407z"/>
<path style="fill:#f0642c; stroke:none;" d="M231 407L233 412L232 410L233 410L237 410L237 407L231 407M245 407L246 408L245 407M251 407L252 408L251 407M261 407L262 408L261 407M272 407L274 409L272 407z"/>
<path style="fill:#f3962f; stroke:none;" d="M57 408L58 409L57 408z"/>
<path style="fill:#f0642c; stroke:none;" d="M60 408L58 415L63 415L60 408z"/>
<path style="fill:#f3962f; stroke:none;" d="M72 408L73 409L72 408M75 408L76 409L75 408M91 408L92 409L91 408M98.3333 408.667L98.6667 409.333L98.3333 408.667M112.333 408.667L112.667 409.333L112.333 408.667M120 408L120 411L121 411L120 408M169.333 408.667L169.667 409.333L169.333 408.667M232 408L233 409L232 408M242 408L242 416L243 416L242 408z"/>
<path style="fill:#f0642c; stroke:none;" d="M253.333 408.667L253.667 409.333L253.333 408.667z"/>
<path style="fill:#f3962f; stroke:none;" d="M61.3333 409.667L61.6667 410.333L61.3333 409.667M73 409L74 410L73 409M89 409L90 410L89 409M95 409L96 410L95 409M115 409L115 412L116 412L115 409M122.333 409.667L122.667 410.333L122.333 409.667M223 409L224 410L223 409z"/>
<path style="fill:#f0642c; stroke:none;" d="M267.667 409.333L268.333 409.667L267.667 409.333z"/>
<path style="fill:#f3962f; stroke:none;" d="M56.3333 410.667L56.6667 411.333L56.3333 410.667M63 410L64 411L63 410M76 410L77 411L76 410M90.3333 410.667L90.6667 411.333L90.3333 410.667M92 410L93 411L92 410M94 410L93 412L95 412L94 410M97 410L98 411L97 410M113.333 410.667L113.667 411.333L113.333 410.667M196.333 410.667L196.667 411.333L196.333 410.667M219 410L220 411L219 410M58 411L59 412L58 411M74 411L75 412L74 411M77 411L78 412L77 411M96.3333 411.667L96.6667 412.333L96.3333 411.667M103.333 411.667L103.667 412.333L103.333 411.667M105.333 411.667L105.667 412.333L105.333 411.667M109 411L109 414L110 414L109 411M168 411L169 412L168 411M174.333 411.667L174.667 412.333L174.333 411.667M216 411L222 413L222 414L216 414L216 415L224 414L224 413L216 411z"/>
<path style="fill:#f0642c; stroke:none;" d="M234.667 411.333L235.333 411.667L234.667 411.333z"/>
<path style="fill:#f3962f; stroke:none;" d="M62.3333 412.667L62.6667 413.333L62.3333 412.667M64.3333 412.667L64.6667 413.333L64.3333 412.667M75 412L76 413L75 412M91 412L92 413L91 412M111 412L112 413L111 412M129 412L129 413L139 413L129 412M148 412L148 413L156 414L148 412M166.667 412.333L167.333 412.667L166.667 412.333M170 412L169 414L171 414L170 412M179 412L179 413L185 414L179 412z"/>
<path style="fill:#f0642c; stroke:none;" d="M239 412L240 413L239 412M246 412L246 415L247 415L246 412z"/>
<path style="fill:#f3962f; stroke:none;" d="M55.3333 413.667L55.6667 414.333L55.3333 413.667M57.3333 413.667L57.6667 414.333L57.3333 413.667M76 413L77 414L76 413M78 413L79 414L78 413M95 413L96 414L95 413M114 413L114 416L115 416L114 413M119.333 413.667L119.667 414.333L119.333 413.667M121 413L121 416L122 416L121 413M159 413L160 414L159 413M61 414L62 415L61 414M65.3333 414.667L65.6667 415.333L65.3333 414.667M79 414L80 415L79 414M92 414L93 415L92 414M108.333 414.667L108.667 415.333L108.333 414.667M110 414L110 417L111 417L110 414M116 414L117 415L116 414M147 414L149 421L149 414L147 414M168.333 414.667L168.667 415.333L168.333 414.667M177 414L177 421L187 423L178 420L179 414L177 414M183 414L184 415L183 414z"/>
<path style="fill:#f0642c; stroke:none;" d="M238 414L240 416L238 414z"/>
<path style="fill:#f3962f; stroke:none;" d="M54 415L54 418L55 418L54 415M77 415L78 416L77 415M104.333 415.667L104.667 416.333L104.333 415.667M106 415L107 416L106 415M159 415L159 418L160 418L159 415M161 415L160 423L163 415L161 415M166.333 415.667L166.667 416.333L166.333 415.667M194 415L194 418L195 418L194 415M196 415L197 416L196 415M230 415L229 418L230 415M232 415L233 416L232 415z"/>
<path style="fill:#f0642c; stroke:none;" d="M253 415L254 416L253 415M273 415L274 416L273 415z"/>
<path style="fill:#f3962f; stroke:none;" d="M57 416L57 417L64 417L57 416M78.3333 416.667L78.6667 417.333L78.3333 416.667M84.3333 416.667L84.6667 417.333L84.3333 416.667z"/>
<path style="fill:#656668; stroke:none;" d="M107.333 416.667L107.667 417.333L107.333 416.667z"/>
<path style="fill:#f3962f; stroke:none;" d="M115 416L115 419L116 419L115 416M118 416L117 418L119 418L118 416M120 416L120 419L121 419L120 416M169 416L170 417L169 416M198 416L197 417L197 418L198 419L199 419L200 418L200 417L198 416z"/>
<path style="fill:#f0642c; stroke:none;" d="M251.333 416.667L251.667 417.333L251.333 416.667M255 416L257 418L255 416M268.333 416.667L268.667 417.333L268.333 416.667z"/>
<path style="fill:#f3962f; stroke:none;" d="M66.3333 417.667L66.6667 418.333L66.3333 417.667M69 417L70 418L69 417M167 417L168 418L167 417z"/>
<path style="fill:#f0642c; stroke:none;" d="M198 417L199 418L198 417z"/>
<path style="fill:#f3962f; stroke:none;" d="M64.3333 418.667L64.6667 419.333L64.3333 418.667M79 418L80 419L79 418M107 418L108 419L107 418M170 418L171 419L170 418M193 418L194 419L193 418M195 418L195 420L197 420L195 418M209 418L210 419L209 418M216 418L223 423L225 420L216 418M232.333 418.667L232.667 419.333L232.333 418.667M242 418L242 420L244 420L242 418z"/>
<path style="fill:#f0642c; stroke:none;" d="M253 418L255 420L253 418z"/>
<path style="fill:#f3962f; stroke:none;" d="M53 419L54 420L53 419M55 419L56 420L55 419M80 419L81 420L80 419M92 419L92 422L93 422L92 419M105.333 419.667L105.667 420.333L105.333 419.667M109.333 419.667L109.667 420.333L109.333 419.667M159 419L159 422L160 422L159 419M168.333 419.667L168.667 420.333L168.333 419.667M171.333 419.667L171.667 420.333L171.333 419.667M199 419L200 420L199 419M208 419L209 420L208 419M209 422L212 419L209 422M234 419L235 420L234 419M65.3333 420.667L65.6667 421.333L65.3333 420.667M67 420L66 423L67 420M84 420L85 421L84 420M150 420L150 421L156 421L150 420M197 420L197 422L199 422L197 420M200.667 420.333L201.333 420.667L200.667 420.333M203 422L208 421L203 422z"/>
<path style="fill:#f0642c; stroke:none;" d="M251 420L252 421L251 420M272 420L273 421L272 420z"/>
<path style="fill:#f3962f; stroke:none;" d="M52 421C53.1266 423.006 53.8734 423.006 55 421L52 421M81 421L82 422L81 421M116 421L117 422L116 421M119 421L120 422L119 421M156 421L155 423L157 423L156 421M169 421L170 422L169 421M233 421L235 424L233 421z"/>
<path style="fill:#f0642c; stroke:none;" d="M256 421L257 422L256 421M274 421L275 422L274 421z"/>
<path style="fill:#f3962f; stroke:none;" d="M70.6667 422.333L71.3333 422.667L70.6667 422.333M82 422L82 423L85 423L82 422M93.6667 422.333L94.3333 422.667L93.6667 422.333M106 422L106 423L109 423L106 422M117.667 422.333L118.333 422.667L117.667 422.333M151 422L152 423L151 422M170 422L171 423L170 422M175 422L176 423L175 422M183 422L184 423L183 422M199.667 422.333L200.333 422.667L199.667 422.333M206 422L206 423L209 423L206 422M217.667 422.333L218.333 422.667L217.667 422.333M220.667 422.333L221.333 422.667L220.667 422.333M202 423L202 424L205 424L202 423M226 423L227 424L226 423z"/>
<path style="fill:#f0642c; stroke:none;" d="M246 423L247 424L246 423M250 423L251 424L250 423M257 423L258 424L257 423M260 423L261 424L260 423M276 423L277 424L276 423z"/>
<path style="fill:#f3962f; stroke:none;" d="M241 426L242 427L241 426z"/>
<path style="fill:#f0642c; stroke:none;" d="M249 428L248 432L252 431L251 428L249 428z"/>
<path style="fill:#f3962f; stroke:none;" d="M239 430L240 431L239 430M229 431L228 433L230 433L229 431M219 432L220 433L219 432M236 432L237 433L236 432M223 433L224 434L223 433M240 433L240 437L241 437L240 433M230 434L227 439L227 446L226 446L223 438L223 437L225 435L219 435C219.699 438.494 216.442 437.231 217 435L212 436L211 440L208 440C205.154 436.053 200.485 437 196 437L196 438C201.642 438.004 211.637 439.789 205 447L206 451L207 451L206 448L209 443L211 444L212 444L209 440C217.608 439.06 222.132 436.405 225 447L214 448L212 456L212 457L216 449L223 447L224 447L227 449L228 441L230 438L239 451L239 456L238 456L236 450C229.594 450.023 228.284 451.715 224 456L225 453L224 453L223 456L224 457L231 456L231 452L229 453L229 452L236 454L233 453L240 458L238 450L237 442L238 442L241 447L240 439L239 439L237 442L236 442L236 436L235 436L235 440L234 440L232 434L230 434M238 435L238 438L239 438L238 435M108 436L108 437L108 438L112 439L113 439L112 436L108 436M120 437L120 438L126 440L124 436L120 437M146 436L146 437L150 437L146 436M159 436L157 451L158 451L159 436M161 436L161 437L165 437L161 436M175 436L175 437L186 440L175 436M227.333 436.667L227.667 437.333L227.333 436.667M58.3333 437.667L58.6667 438.333L58.3333 437.667z"/>
<path style="fill:#fefcfa; stroke:none;" d="M59 437L53 456L57 451L69 456L62 437L59 437z"/>
<path style="fill:#f3962f; stroke:none;" d="M60 437L61 438L60 437M62 437L63 438L62 437M70 437L70 456L71 456L72 437L70 437z"/>
<path style="fill:#fefcfa; stroke:none;" d="M71 456C73.9467 455.998 77.1568 456.285 79.9846 455.297C95.1941 449.983 78.7125 430.185 72.0278 438.603C69.2085 442.154 71 451.642 71 456z"/>
<path style="fill:#f3962f; stroke:none;" d="M79.6667 437.333L80.3333 437.667L79.6667 437.333M86 437L87 438L86 437z"/>
<path style="fill:#fefcfa; stroke:none;" d="M87 437C88.4349 443.202 90.2999 453.891 97 456L103 437L95 451C93.2699 445.683 92.4644 439.473 87 437z"/>
<path style="fill:#f3962f; stroke:none;" d="M88 437L88 438L91 438L88 437M99 437L99 440L100 440L101 437L99 437M103.333 437.667L103.667 438.333L103.333 437.667z"/>
<path style="fill:#fefcfa; stroke:none;" d="M103 456C111.731 451.222 109.561 452.979 118 456L112 437C105.729 439.459 103.616 449.817 103 456M121 437C119.695 442.124 118.084 452.813 123 456L123 444C125.895 446.578 129.188 454.448 133.037 455.079C138.422 455.961 136.096 439.233 133 437L132 449L121 437z"/>
<path style="fill:#f3962f; stroke:none;" d="M132 437L133 438L132 437M134.667 437.333L135.333 437.667L134.667 437.333M138 444L139 444L145 438C140.994 437.46 139.207 440.534 138 444z"/>
<path style="fill:#fefcfa; stroke:none;" d="M155 453C151.863 452.318 147.879 453.35 145.148 451.382C136.136 444.886 148.259 440.295 154 441C144.882 425.393 127.44 457.887 148.995 455.853C151.539 455.613 153.14 454.604 155 453z"/>
<path style="fill:#f3962f; stroke:none;" d="M151.667 437.333L152.333 437.667L151.667 437.333z"/>
<path style="fill:#fefcfa; stroke:none;" d="M157 455L169 456L160 453C161.178 449.118 163.048 448.301 167 448L167 445L160 441L168 440L168 437C155.673 437.01 158.267 444.874 157 455z"/>
<path style="fill:#f3962f; stroke:none;" d="M168 437L168 440L169 440L168 437M171.333 437.667L171.667 438.333L171.333 437.667z"/>
<path style="fill:#fefcfa; stroke:none;" d="M171 455C173.372 455.701 175.495 456.094 178.002 455.903C180.009 455.75 182.107 455.354 183.772 454.142C195.689 445.469 176.194 430.538 171.743 439.318C169.612 443.522 171.677 450.339 171 455z"/>
<path style="fill:#f3962f; stroke:none;" d="M82 438L83 439L82 438M91 438L91 441L92 441L91 438M153 438L154 441L155 441L155 438L153 438z"/>
<path style="fill:#fefcfa; stroke:none;" d="M196 438L197 456L198 456L198 448L209 456L205 447C213.957 440.664 200.87 438.001 196 438M212 438L212 456L214 456L214 448C227.836 447.951 224.136 438.001 212 438M230 438L224 456L236 450L238 456L239 456L233 438L230 438z"/>
<path style="fill:#f3962f; stroke:none;" d="M63 439L64 440L63 439M83.6667 439.333L84.3333 439.667L83.6667 439.333M87.3333 439.667L87.6667 440.333L87.3333 439.667M107.333 439.667L107.667 440.333L107.333 439.667M198 439L201 447L199 440L206 441L198 439M214 439L214 447L215 447L215 440L222 441L214 439M57.3333 440.667L57.6667 441.333L57.3333 440.667M74 440L74 441L82 445C82.0981 440.574 77.6584 440.119 74 440M102.333 440.667L102.667 441.333L102.333 440.667M113 440L114 441L113 440M131 440L132 441L131 440M145 440L145 441L151 441L145 440M161 440L161 441L168 441L161 440M175 443L176 443C182.532 439.065 185.252 451.224 175 452C180.472 455.153 186.565 448.745 183.278 443.083C181.248 439.587 175.916 438.726 175 443z"/>
<path style="fill:#f0642c; stroke:none;" d="M199 440C199.767 449.844 210.412 440.967 199 440M209 440C210.127 442.006 210.873 442.006 212 440L209 440M215 440L215 447L222 441L215 440z"/>
<path style="fill:#f3962f; stroke:none;" d="M231 440C229.833 443.712 228.571 446.452 232 449L230 446L233 447L234 447L231 440M64.3333 441.667L64.6667 442.333L64.3333 441.667z"/>
<path style="fill:#f0642c; stroke:none;" d="M74 441L75 453C84.5458 450.499 84.1311 441.33 74 441z"/>
<path style="fill:#f3962f; stroke:none;" d="M85 441L86 442L85 441M98 441L99 442L98 441M120.333 441.667L120.667 442.333L120.333 441.667M126 441L127 442L126 441M151 441L151 442L154 442L151 441M160.333 441.667L160.667 442.333L160.333 441.667z"/>
<path style="fill:#f0642c; stroke:none;" d="M175 452C190.709 451.488 176.874 436.244 175.253 445.044C174.841 447.282 175.166 449.725 175 452z"/>
<path style="fill:#f3962f; stroke:none;" d="M186 441L187 442L186 441z"/>
<path style="fill:#f0642c; stroke:none;" d="M228 441L229 442L228 441z"/>
<path style="fill:#f3962f; stroke:none;" d="M56 442L56 445L57 445L56 442M60 442L60 444L62 444L60 442M88.3333 442.667L88.6667 443.333L88.3333 442.667M106.333 442.667L106.667 443.333L106.333 442.667M110 442L111 443L110 442M114.333 442.667L114.667 443.333L114.333 442.667M127 442L128 443L127 442M143 442L144 443L143 442M187 442L187 451L188 451L187 442M216 442L217 443L216 442M86 443L86 450L87 450L86 443M92 443L93 444L92 443M97.3333 443.667L97.6667 444.333L97.3333 443.667M101.333 443.667L101.667 444.333L101.333 443.667z"/>
<path style="fill:#f0642c; stroke:none;" d="M110 443L109 448L112 448L110 443z"/>
<path style="fill:#f3962f; stroke:none;" d="M142 443L143 444L142 443M203.333 443.667L203.667 444.333L203.333 443.667M221 443L216 446L216 447C218.94 446.773 221.777 446.454 221 443z"/>
<path style="fill:#f0642c; stroke:none;" d="M231 443L232 444L231 443M60 444L59 448L62 444L60 444z"/>
<path style="fill:#f3962f; stroke:none;" d="M65.3333 444.667L65.6667 445.333L65.3333 444.667M109 444L110 445L109 444M111 444L112 445L111 444M120 444L121 445L120 444M123 444L123 456L124 456L125 444L123 444M128 444L129 445L128 444M161 444L162 445L161 444M163.667 444.333L164.333 444.667L163.667 444.333M166 444L167 445L166 444M205 444L204 446L206 446L205 444z"/>
<path style="fill:#f0642c; stroke:none;" d="M236 444L237 445L236 444z"/>
<path style="fill:#f3962f; stroke:none;" d="M59.3333 445.667L59.6667 446.333L59.3333 445.667M89.3333 445.667L89.6667 446.333L89.3333 445.667M105 445L106 446L105 445M115.333 445.667L115.667 446.333L115.333 445.667M129 445L130 446L129 445z"/>
<path style="fill:#f0642c; stroke:none;" d="M224.333 445.667L224.667 446.333L224.333 445.667M230 446L234 448L233 445L230 446z"/>
<path style="fill:#f3962f; stroke:none;" d="M55.3333 446.667L55.6667 447.333L55.3333 446.667M62.3333 446.667L62.6667 447.333L62.3333 446.667M93 446L94 447L93 446M96.3333 446.667L96.6667 447.333L96.3333 446.667M100.333 446.667L100.667 447.333L100.333 446.667M108.333 446.667L108.667 447.333L108.333 446.667M125 446L126 447L125 446M171 446L172 447L171 446M112 447L113 448L112 447M126 447L128 450L126 447M130 447L131 448L130 447z"/>
<path style="fill:#f0642c; stroke:none;" d="M225 447L226 448L225 447z"/>
<path style="fill:#f3962f; stroke:none;" d="M90 448L91 449L90 448M94.3333 448.667L94.6667 449.333L94.3333 448.667M99.3333 448.667L99.6667 449.333L99.3333 448.667M104.333 448.667L104.667 449.333L104.333 448.667M131 448L132 449L131 448M161 448L161 449L164 449L161 448M165.667 448.333L166.333 448.667L165.667 448.333M170 448L171 449L170 448M198 448L198 456L199 456L199 449L204 451L198 448M211 448L211 451L212 451L211 448M54 449L55 450L54 449M67 449L67 452L68 452L67 449M82 449L83 450L82 449M116 449L117 450L116 449M138.333 449.667L138.667 450.333L138.333 449.667M142 449L143 450L142 449M160 449L162 453L160 449M171 449L171 453L172 453L171 449M175 449L176 450L175 449M81 450L82 451L81 450M91.3333 450.667L91.6667 451.333L91.3333 450.667M95 450L96 451L95 450M128 450L129 451L128 450M152 451L155 453L154 450L152 451M225 450L226 451L225 450M57 453L60 452L57 453M61 451L61 452L64 452L61 451M80 451L81 452L80 451M85 451L86 452L85 451M98.3333 451.667L98.6667 452.333L98.3333 451.667M103 451L104 452L103 451M107 451L107 452L114 452L107 451M117.333 451.667L117.667 452.333L117.333 451.667M139.333 451.667L139.667 452.333L139.333 451.667M186.333 451.667L186.667 452.333L186.333 451.667M204 451L205 452L204 451M220 451L221 452L220 451M224 451L225 452L224 451z"/>
<path style="fill:#f0642c; stroke:none;" d="M238 451L239 452L238 451z"/>
<path style="fill:#f3962f; stroke:none;" d="M53.3333 452.667L53.6667 453.333L53.3333 452.667M64.3333 452.667L64.6667 453.333L64.3333 452.667M74 452L75 453L74 452M77 452L77 453L80 453L77 452M129 452L130 453L129 452M145.667 452.333L146.333 452.667L145.667 452.333M149.667 452.333L150.333 452.667L149.667 452.333M163 452L163 453L166 453L163 452M167 452L169 456L170 456L167 452M207 452L208 453L207 452M68.3333 453.667L68.6667 454.333L68.3333 453.667M83.6667 453.333L84.3333 453.667L83.6667 453.333M92.3333 453.667L92.6667 454.333L92.3333 453.667M102 453L102 456L103 456L102 453M106.333 453.667L106.667 454.333L106.333 453.667M114.333 453.667L114.667 454.333L114.333 453.667M130.333 453.667L130.667 454.333L130.333 453.667M140 453L141 454L140 453M155 453L156 454L155 453M157 453L158 454L157 453M185 453L186 454L185 453M205 453L206 454L205 453M208.333 453.667L208.667 454.333L208.333 453.667M211.333 453.667L211.667 454.333L211.333 453.667M52.3333 454.667L52.6667 455.333L52.3333 454.667M56.3333 454.667L56.6667 455.333L56.3333 454.667M82 454L83 455L82 454M97 454L98 455L97 454M118.333 454.667L118.667 455.333L118.333 454.667M141 454L142 455L141 454M153 454L154 455L153 454M184 454L185 455L184 454M65 455L66 456L65 455M80.6667 455.333L81.3333 455.667L80.6667 455.333M93 455L94 456L93 455M105 455L106 456L105 455M120 455L120 457L122 457L120 455M131 455L132 456L131 455M135 455L136 456L135 455M142.667 455.333L143.333 455.667L142.667 455.333M152 455L153 456L152 455M157 455L158 456L157 455M171 455L172 456L171 455M181.667 455.333L182.333 455.667L181.667 455.333M186 455L187 456L186 455M196 455L196 457L198 457L196 455M205 455L209 457L205 455M232 455L233 456L232 455z"/>
<path style="fill:#f0642c; stroke:none;" d="M236 455L237 456L236 455z"/>
<path style="fill:#f3962f; stroke:none;" d="M66.6667 456.333L67.3333 456.667L66.6667 456.333M72.6667 456.333L73.3333 456.667L72.6667 456.333M117 456L118 457L117 456M144 456L144 457L151 457L144 456M158 456L158 457L168 457L158 456M172 456L172 457L180 457L172 456M236 459L234 464L241 461L236 459M226.667 460.333L227.333 460.667L226.667 460.333M213 465L214 466L213 465M223 465L224 466L223 465M239 465L239 479L240 479L239 465M221 467L222 468L221 467M212 468L213 469L212 468M175 469L183 475L175 469M219 469L220 470L219 469M222 469L220 474L221 474L221 471L224 472L222 469M55 470L55 474L56 474L56 471L63 471L55 470M70 473L71 473L78 471C74.6682 469.617 71.9941 469.924 70 473M91.6667 470.333L92.3333 470.667L91.6667 470.333z"/>
<path style="fill:#fefcfa; stroke:none;" d="M93.0008 470.834C81.3628 471.931 83.3086 490.661 94.9961 489.282C106.438 487.931 104.827 469.72 93.0008 470.834z"/>
<path style="fill:#f3962f; stroke:none;" d="M94 470L94 471L97 471L94 470M106 490L109 481L108 481L108 489L107 489L107 471L116 471L116 472L108 472L108 480L116 481L109 479L109 473L117 472C104.296 462.376 106 483.174 106 490M118 471L118 472L129 471L129 472L121 472L121 479L122 479L122 473L130 473L130 470L118 471M132 474L138 471L132 474z"/>
<path style="fill:#fefcfa; stroke:none;" d="M133 487L133 488C154.062 494.152 126.673 470.496 142 473C139.457 469.777 132.233 470.782 132.921 475.964C133.444 479.896 147.906 489.286 133 487z"/>
<path style="fill:#f3962f; stroke:none;" d="M139.667 470.333L140.333 470.667L139.667 470.333M146 473L151 471L146 473z"/>
<path style="fill:#fefcfa; stroke:none;" d="M146 487L146 488C149.482 489.02 157.883 489.508 155.593 483.101C154.078 478.863 142.486 470.927 156 473C152.773 470.292 144.541 470.525 146.662 476.792C148.223 481.405 160.295 489.487 146 487z"/>
<path style="fill:#f3962f; stroke:none;" d="M152 470L152 471L155 471L152 470M160 470L161 474L162 474L160 470M171.667 470.333L172.333 470.667L171.667 470.333z"/>
<path style="fill:#fefcfa; stroke:none;" d="M173.004 470.718C161.694 472.054 163.511 490.629 174.999 489.282C187.178 487.853 185.201 469.278 173.004 470.718z"/>
<path style="fill:#f3962f; stroke:none;" d="M187 470C185.452 475.238 183.898 486.693 189 490L189 489L187 471L190 472L187 470M200 470L199 483L190 473L199 486L200 486L200 471L201 471L201 489L197 485L196 485C202.433 496.338 203.626 474.786 200 470M206 470L207 471L206 470M209 471L209 472L212 471L216 477C214.678 473.156 213.206 470.935 209 471z"/>
<path style="fill:#fefcfa; stroke:none;" d="M56 471L56 489L57 489L57 482C69.8133 481.849 68.2626 471.035 56 471z"/>
<path style="fill:#f3962f; stroke:none;" d="M64.6667 471.333L65.3333 471.667L64.6667 471.333z"/>
<path style="fill:#fefcfa; stroke:none;" d="M71 489L72 489L72 481C77.0088 481.791 78.5432 484.869 81 489C81.427 486.468 82.1028 475.428 80.8056 473.433C78.8892 470.485 72.4723 469.925 70.7423 473.318C68.686 477.351 69.7801 484.873 71 489z"/>
<path style="fill:#f3962f; stroke:none;" d="M79 471L80 472L79 471M89 471L90 472L89 471M98.6667 471.333L99.3333 471.667L98.6667 471.333z"/>
<path style="fill:#fefcfa; stroke:none;" d="M107 471L107 489L108 489L108 481L114 481L114 480L108 480L108 472L116 472L107 471M119 471L119 489L130 489L130 488L121 488C121.173 482.711 122.613 480.918 128 481L121 479L121 472L129 472L119 471z"/>
<path style="fill:#f3962f; stroke:none;" d="M142 471L141 474L142 471M155 471L156 472L155 471z"/>
<path style="fill:#fefcfa; stroke:none;" d="M160 471L160 489L161 489C162.029 483.436 162.964 476.039 160 471z"/>
<path style="fill:#f3962f; stroke:none;" d="M169 471L170 472L169 471z"/>
<path style="fill:#fefcfa; stroke:none;" d="M187 471L187 489L189 489L189 475L190 475L201 489L201 471L200 471L200 486L199 486L189 471L187 471M210 471L204 489L205 489L207 483L219 489L212 471L210 471M221 471L221 489L232 489L232 488L223 488L223 471L221 471z"/>
<path style="fill:#f3962f; stroke:none;" d="M57 472L57 480L58 480L58 473L65 474L57 472M66 472L67 473L66 472M72 474L79 474C76.4929 472.103 74.2058 471.487 72 474M87 472L88 473L87 472M91 472L91 473L100 477C100.107 472.335 94.698 472.089 91 472M100 472L101 473L100 472M136 472L136 473L141 473L136 472M149 472L149 473L154 473L149 472M167 472L168 473L167 472M169 475L177 473C173.743 471.674 171.056 472.09 169 475M215 472L216 473L215 472z"/>
<path style="fill:#f0642c; stroke:none;" d="M58 473L58 480C65.8938 479.737 65.9784 473.262 58 473M73.6219 474.039C70.2917 476.643 75.4618 480.629 78.3781 478.113C81.6407 475.299 76.3279 471.924 73.6219 474.039z"/>
<path style="fill:#f3962f; stroke:none;" d="M81 473L82 474L81 473M86 473L87 474L86 473M89 473L88 475L90 475L89 473z"/>
<path style="fill:#f0642c; stroke:none;" d="M90.483 473.859C82.5722 477.903 89.6622 490.77 97.7716 485.821C105.158 481.313 98.1401 469.944 90.483 473.859z"/>
<path style="fill:#f3962f; stroke:none;" d="M101 473L102 474L101 473M148 473L149 474L148 473M155 473L156 474L155 473M166 473L165 477L166 477L166 473z"/>
<path style="fill:#f0642c; stroke:none;" d="M171.109 473.859C163.031 477.479 168.838 489.514 176.941 486.392C185.052 483.268 179.59 470.057 171.109 473.859z"/>
<path style="fill:#f3962f; stroke:none;" d="M178 473L179 474L178 473M208 473L208 476L209 476L208 473M67 474L67 479L68 479L67 474M134 474L134 477L135 477L134 474M145 474L145 477L146 477L145 474M147.333 474.667L147.667 475.333L147.333 474.667M179 474L180 475L179 474M211 474L210 476L212 476L211 474M223 474L225 481L223 474M65 475L65 478L66 478L65 475M85 475L86 476L85 475M102 475L103 476L102 475M149 475L150 476L149 475M159.333 475.667L159.667 476.333L159.333 475.667M180.333 475.667L180.667 476.333L180.333 475.667M189.333 475.667L189.667 476.333L189.333 475.667M148 476L148 478L150 478L148 476M167 476L168 477L167 476M183.333 476.667L183.667 477.333L183.333 476.667z"/>
<path style="fill:#f0642c; stroke:none;" d="M210 476L209 481L213 482L210 476z"/>
<path style="fill:#f3962f; stroke:none;" d="M220 476L219 489L217 487L216 487C217.075 492.015 232.81 491.801 235 488L221 489L220 476M84 477L84 482L85 482L84 477M132 477L133 478L132 477M135 477L136 478L135 477M161 477L161 480L162 480L161 477M181 477L181 483L182 483L181 477M190 477L191 478L190 477M207 477L208 478L207 477M209.333 477.667L209.667 478.333L209.333 477.667M212 477L213 478L212 477M64.3333 478.667L64.6667 479.333L64.3333 478.667M72 478L75 480L75 479L72 478M81 478L82 479L81 478M86 478L86 482L87 482L86 478M101 478L101 482L102 482L101 478M103 478L103 483L104 483L103 478M133 478L134 479L133 478M137 478L138 479L137 478M146 478L147 479L146 478M150 478L151 479L150 478M191 478L192 479L191 478M215.333 478.667L215.667 479.333L215.333 478.667M66 479L64 482L66 479M76 479L76 480L79 480L76 479M134 479L135 480L134 479M139 479L140 480L139 479M147.667 479.333L148.333 479.667L147.667 479.333M152.667 479.333L153.333 479.667L152.667 479.333M166.333 479.667L166.667 480.333L166.333 479.667M192.333 479.667L192.667 480.333L192.333 479.667M204 479L205 480L204 479M206 479L205 484L206 484L206 479M213 479L213 482L214 482L213 479M60 480L61 481L60 480M79 480L80 481L79 480M123.667 480.333L124.333 480.667L123.667 480.333M128 480L129 481L128 480M136.667 480.333L137.333 480.667L136.667 480.333M141 480L142 481L141 480M149.667 480.333L150.333 480.667L149.667 480.333M154 480L156 482L156 480L154 480M208 480L212 482L212 481L208 480M216.333 480.667L216.667 481.333L216.333 480.667M72 481L72 482L77 482L72 481z"/>
<path style="fill:#656668; stroke:none;" d="M79 481L80 482L79 481z"/>
<path style="fill:#f3962f; stroke:none;" d="M121 481L121 488L130 488L130 487L122 487L121 481M138 481L141 483L138 481M142 481L143 482L142 481M152 481L153 482L152 481M193 481L194 482L193 481M57 482L57 489L58 489L58 483L62 483L57 482M77.3333 482.667L77.6667 483.333L77.3333 482.667M79 482L80 483L79 482M153 482L154 483L153 482M156.333 482.667L156.667 483.333L156.333 482.667M159 482L159 485L160 485L159 482M183 482L184 483L183 482M194 482L195 483L194 482M87 483L88 484L87 483M100 483L101 484L100 483M141 483L141 486L142 486L141 483M143 483L143 486L144 486L143 483M154 483L154 487L155 487L154 483M165.333 483.667L165.667 484.333L165.333 483.667M167 483L168 484L167 483M195 483L196 484L195 483M207 485L214 486L215 483L207 485M217 483L217 486L218 486L217 483z"/>
<path style="fill:#f0642c; stroke:none;" d="M220 483L221 484L220 483z"/>
<path style="fill:#f3962f; stroke:none;" d="M223 483L223 488L232 488L232 487L224 487L223 483M78.3333 484.667L78.6667 485.333L78.3333 484.667M80 484L81 485L80 484M85 484L86 485L85 484M102 484L103 485L102 484M157 484L158 485L157 484M180 484L181 485L180 484M182 484L181 487L182 484M193 484L194 485L193 484M55 485L56 486L55 485M88 485L90 487L90 485L88 485M99 485L100 486L99 485M101.333 485.667L101.667 486.333L101.333 485.667M146 485L145 488L148 486L146 485M156.333 485.667L156.667 486.333L156.333 485.667M166.333 485.667L166.667 486.333L166.333 485.667M169 485L170 486L169 485M179 485L180 486L179 485M204 485L205 486L204 485M215.333 485.667L215.667 486.333L215.333 485.667M79.3333 486.667L79.6667 487.333L79.3333 486.667M81 486L82 487L81 486M86 486L87 487L86 486M97.6667 486.333L98.3333 486.667L97.6667 486.333M132 488L135 487L132 488M140 486L141 487L140 486M159 486L160 487L159 486M161 486L160 490L163 489L161 486M170 486L171 487L170 486M178 486L179 487L178 486M206 486L207 487L206 486M209 486L210 487L209 486M211 486L212 487L211 486M218.333 486.667L218.667 487.333L218.333 486.667M87 487L88 488L87 487M91 487L91 488L97 488L91 487M100 487L101 488L100 487M135 487L135 488L140 488L135 487M142 487L141 489L143 489L142 487M148 487L148 488L154 488L148 487M155 487L154 489L156 489L155 487M167 487L168 488L167 487M171 487L171 488L177 488L171 487M180 487L181 488L180 487M214 487L215 488L214 487M55 488L55 490L57 490L55 488M69 488L72 490L69 488M80 488C81.1266 490.006 81.8734 490.006 83 488L80 488M89 488L90 489L89 488M98.6667 488.333L99.3333 488.667L98.6667 488.333M133 488L134 489L133 488M146.667 488.333L147.333 488.667L146.667 488.333M169 488L170 489L169 488M178.667 488.333L179.333 488.667L178.667 488.333M203 488L207 489L207 488L203 488M91.6667 489.333L92.3333 489.667L91.6667 489.333M95.6667 489.333L96.3333 489.667L95.6667 489.333M119 489L119 490L130 490L119 489M134 489L134 490L141 490L134 489M148 489L148 490L151 490L148 489M152.667 489.333L153.333 489.667L152.667 489.333M171.667 489.333L172.333 489.667L171.667 489.333M175 489L175 490L178 490L175 489M238 489L241 493L238 489M206 491L207 492L206 491M220.667 495.333L221.333 495.667L220.667 495.333z"/>
<path style="fill:#f0642c; stroke:none;" d="M294 514L294 516C288.508 517.965 281.779 519.992 280 526L295 519C292.082 527.63 305.01 522.293 310 524L311 516L312 516L312 523L313 523L329 518L329 516L316 517C321.218 511.147 326.612 511 334 511L334 512L332 513L337 512L337 510C325.639 505.206 319.676 514.412 310 513L310 517L309 517L308 511L302 514L315 498C308.712 498.271 279.221 505.344 294 514z"/>
<path style="fill:#f3962f; stroke:none;" d="M312 500L292 508C296.621 516.799 311.503 507.399 312 500z"/>
<path style="fill:#656668; stroke:none;" d="M296 515L297 516L296 515z"/>
<path style="fill:#f3962f; stroke:none;" d="M304 515L306 519L307 515L304 515z"/>
<path style="fill:#f0642c; stroke:none;" d="M332 515L331 516L331 517L332 518L333 518L334 517L334 516L332 515z"/>
<path style="fill:#656668; stroke:none;" d="M311 516L311 521L311 516M313.333 516.667L313.667 517.333L313.333 516.667M308.333 517.667L308.667 518.333L308.333 517.667z"/>
<path style="fill:#f3962f; stroke:none;" d="M295 518L296 519L295 518M297 520L297 521L303 518L297 520z"/>
<path style="fill:#656668; stroke:none;" d="M309 520L310 521L309 520z"/>
<path style="fill:#f3962f; stroke:none;" d="M218 528L219 529L218 528M225 528L226 529L225 528M230 528L231 529L230 528M235 528L236 529L235 528z"/>
<path style="fill:#f0642c; stroke:none;" d="M285 528L286 529L285 528M287 528L288 529L287 528M293 528L294 529L293 528z"/>
<path style="fill:#f3962f; stroke:none;" d="M191 529L192 530L191 529M222.333 530.667L222.667 531.333L222.333 530.667M237.333 530.667L237.667 531.333L237.333 530.667z"/>
<path style="fill:#f0642c; stroke:none;" d="M246 532L246 533L254 532L246 532M263 531L263 539L264 539L268 536C267.423 532.526 266.474 531.577 263 531z"/>
<path style="fill:#f3962f; stroke:none;" d="M220.333 532.667L220.667 533.333L220.333 532.667M224 532L225 533L224 532z"/>
<path style="fill:#f0642c; stroke:none;" d="M272 532L272 539L277 536L280 538L284 538L281 541L284 541L285 533L276 534L274 538L273 533L280 533L272 532M304 532L301 538L304 532z"/>
<path style="fill:#f3962f; stroke:none;" d="M230 533L232 536L230 533M264 533L264 535L266 535L264 533z"/>
<path style="fill:#f0642c; stroke:none;" d="M286 533L286 539L287 539L286 533M288 533L288 538L289 538L288 533M296 533L296 538L297 538L296 533z"/>
<path style="fill:#f3962f; stroke:none;" d="M237 534L235 540L237 534z"/>
<path style="fill:#f0642c; stroke:none;" d="M248 534L253 536L248 534M292 534L291 538L292 538L294 536L293 538L294 538L295 538L294 534L292 534M301 534L302 535L301 534M315 534L316 535L315 534M342.333 534.667L342.667 535.333L342.333 534.667z"/>
<path style="fill:#f3962f; stroke:none;" d="M195 535L196 536L195 535M259 535L260 536L259 535z"/>
<path style="fill:#f0642c; stroke:none;" d="M318.333 535.667L318.667 536.333L318.333 535.667M329 535L329 538L330 538L329 535M334 535L334 538L335 538L334 535M305 536L305 538L307 538L307 536L305 536M312 536L313 537L312 536z"/>
<path style="fill:#f3962f; stroke:none;" d="M226 537L227 538L226 537M230 537L229 539L231 539L230 537M232.333 538.667L232.667 539.333L232.333 538.667z"/>
<path style="fill:#f0642c; stroke:none;" d="M267 538L267 540L269 540L269 538L267 538z"/>
<path style="fill:#f3962f; stroke:none;" d="M239.333 539.667L239.667 540.333L239.333 539.667z"/>
<path style="fill:#f0642c; stroke:none;" d="M256 540L257 541L256 540M261 540L262 541L261 540z"/>
<path style="fill:#f3962f; stroke:none;" d="M237 543L238 544L237 543M239 545L239 594L240 594C240 580.212 244.309 557.652 239 545z"/>
<path style="fill:#272429; stroke:none;" d="M64 566L65 567L64 566M74.6667 566.333L75.3333 566.667L74.6667 566.333M79 566L80 567L79 566M87.6667 566.333L88.3333 566.667L87.6667 566.333M101 566L100 570L101 570L103 567L101 566M111.667 566.333L112.333 566.667L111.667 566.333M132.667 566.333L133.333 566.667L132.667 566.333M58 567L59 568L58 567z"/>
<path style="fill:#656668; stroke:none;" d="M69 567L70 568L69 567z"/>
<path style="fill:#272429; stroke:none;" d="M70 567L71 568L70 567M77 567L78 568L77 567M83 567L84 568L83 567M96 567L97 568L96 567z"/>
<path style="fill:#f0642c; stroke:none;" d="M101.667 567.333L102.333 567.667L101.667 567.333z"/>
<path style="fill:#656668; stroke:none;" d="M103 567L104 568L103 567z"/>
<path style="fill:#272429; stroke:none;" d="M107 567L108 568L107 567M118 567L119 568L118 567M122 567L123 568L122 567M63 568L64 569L63 568M80.3333 568.667L80.6667 569.333L80.3333 568.667M85.3333 568.667L85.6667 569.333L85.3333 568.667z"/>
<path style="fill:#656668; stroke:none;" d="M101 568L104 570L101 568z"/>
<path style="fill:#272429; stroke:none;" d="M131 568L131 569L133 572L134 572L135 569L131 568M57.3333 569.667L57.6667 570.333L57.3333 569.667M65 569L66 570L65 569M71.3333 569.667L71.6667 570.333L71.3333 569.667M91.6667 569.333L92.3333 569.667L91.6667 569.333M111 569L111 570L114 570L111 569M118 569L118 572L119 572L118 569M60.3333 570.667L60.6667 571.333L60.3333 570.667M62 570L63 571L62 570z"/>
<path style="fill:#656668; stroke:none;" d="M65 570L66 571L65 570z"/>
<path style="fill:#272429; stroke:none;" d="M68 570L67 572L68 570z"/>
<path style="fill:#656668; stroke:none;" d="M77 570L78 571L77 570z"/>
<path style="fill:#272429; stroke:none;" d="M82 570L81 572L82 570z"/>
<path style="fill:#656668; stroke:none;" d="M85 570L86 571L85 570z"/>
<path style="fill:#272429; stroke:none;" d="M103 570L104 571L103 570M107.667 570.333L108.333 570.667L107.667 570.333z"/>
<path style="fill:#656668; stroke:none;" d="M113 570L114 571L113 570z"/>
<path style="fill:#272429; stroke:none;" d="M74 571L74 572L77 572L74 571M86 571L87 572L86 571M96 571L97 572L96 571M100 571L101 572L100 571M102 571L103 572L102 571M112 571L113 572L112 571M122.667 571.333L123.333 571.667L122.667 571.333M127.667 571.333L128.333 571.667L127.667 571.333z"/>
</svg>
