<?xml version="1.0" standalone="no"?>
<!DOCTYPE svg PUBLIC "-//W3C//DTD SVG 20010904//EN"
 "http://www.w3.org/TR/2001/REC-SVG-20010904/DTD/svg10.dtd">
<svg version="1.0" xmlns="http://www.w3.org/2000/svg"
 width="230.000000pt" height="100.000000pt" viewBox="0 0 230.000000 100.000000"
 preserveAspectRatio="xMidYMid meet">
<metadata>
Created by potrace 1.16, written by Peter Selinger 2001-2019
</metadata>
<g transform="translate(0.000000,100.000000) scale(0.028786,-0.021368)"
fill="#000000" stroke="none">
<path d="M4215 3665 c-86 -16 -137 -34 -223 -80 -80 -41 -192 -130 -192 -150
0 -24 34 -17 61 11 62 66 212 146 329 175 80 20 279 18 360 -5 95 -26 196 -77
274 -140 70 -56 96 -68 96 -42 0 18 -58 69 -140 121 -166 107 -370 147 -565
110z"/>
<path d="M4294 3419 c-72 -9 -142 -34 -210 -75 -69 -41 -104 -72 -104 -91 0
-23 30 -14 74 22 23 19 73 49 112 67 67 32 73 33 194 33 123 0 126 -1 201 -36
41 -20 91 -50 111 -68 38 -33 68 -40 68 -17 0 16 -62 69 -120 103 -80 48 -223
75 -326 62z"/>
<path d="M4297 3160 c-51 -13 -87 -33 -116 -64 -41 -43 -13 -49 50 -10 79 50
147 56 220 21 30 -15 64 -34 76 -43 21 -15 23 -15 29 0 9 23 -10 41 -70 71
-59 29 -133 39 -189 25z"/>
<path d="M4076 2882 c-6 -10 5 -50 69 -237 21 -60 40 -120 42 -132 l5 -23
-260 0 c-228 0 -261 -2 -266 -16 -12 -30 -7 -279 6 -292 14 -14 1034 -17 1056
-4 9 7 12 45 10 158 l-3 149 -107 3 c-60 1 -108 4 -108 6 0 1 20 58 45 126 25
67 43 125 41 127 -3 3 4 30 15 60 23 59 20 94 -6 73 -8 -6 -19 -28 -26 -48 -6
-20 -19 -48 -28 -62 -9 -14 -37 -81 -62 -150 l-46 -125 -94 0 -94 0 -46 124
c-26 69 -52 134 -60 145 -7 12 -23 43 -34 70 -20 49 -38 66 -49 48z m604 -547
l0 -95 -475 0 -475 0 0 95 0 95 475 0 475 0 0 -95z"/>
<path d="M2375 1743 c45 -11 45 -11 45 -312 0 -157 -4 -291 -8 -297 -4 -7 -16
-14 -27 -17 -11 -2 18 -5 65 -5 49 0 74 3 60 7 -24 7 -25 10 -28 101 -3 109 9
171 44 217 53 69 142 62 164 -15 6 -21 10 -92 8 -167 -3 -128 -3 -129 -28
-136 -14 -4 15 -7 65 -7 50 1 78 3 63 5 l-28 4 0 127 c-1 150 -9 196 -45 231
-21 22 -34 26 -83 26 -67 0 -111 -26 -142 -83 l-19 -37 -1 183 0 182 -62 -1
c-35 -1 -54 -4 -43 -6z"/>
<path d="M3137 1743 c13 -2 25 -14 28 -26 3 -12 4 -150 3 -307 l-3 -284 -25
-7 c-14 -4 12 -7 60 -7 47 1 75 3 63 5 -31 6 -37 37 -30 155 7 120 31 173 90
201 49 24 86 13 110 -34 14 -28 17 -56 15 -174 -3 -139 -3 -139 -28 -146 -14
-4 14 -7 65 -7 51 0 79 3 65 7 -25 7 -25 7 -30 161 -6 172 -12 194 -65 216
-73 30 -155 4 -196 -63 l-24 -38 -3 178 -2 177 -58 -1 c-31 -1 -47 -4 -35 -6z"/>
<path d="M5010 1741 l25 -7 3 -169 2 -170 -23 38 c-44 72 -114 95 -190 63
-142 -59 -142 -323 0 -382 72 -30 142 -6 190 65 l23 34 0 -52 0 -51 63 1 c42
1 54 3 37 8 l-25 7 -3 312 -2 312 -63 -1 c-42 -1 -54 -3 -37 -8z m-27 -284
c61 -61 75 -168 32 -253 -37 -75 -94 -101 -154 -69 -80 41 -93 254 -21 327 42
41 98 39 143 -5z"/>
<path d="M1153 1584 c-15 -47 -35 -68 -78 -80 l-30 -8 28 -4 27 -3 0 -145 c0
-104 4 -154 15 -180 32 -77 158 -85 209 -12 27 39 17 41 -18 4 -38 -41 -71
-46 -107 -17 -23 19 -24 25 -27 185 l-3 165 73 4 73 3 -72 2 -72 2 -3 63 -3
62 -12 -41z"/>
<path d="M1523 1491 c-118 -54 -139 -251 -38 -340 36 -31 89 -51 139 -51 45 0
113 37 136 74 30 49 24 56 -11 13 -17 -21 -44 -44 -59 -52 -86 -45 -183 21
-192 130 l-3 40 149 3 148 3 -6 41 c-21 130 -142 194 -263 139z m149 -18 c18
-16 48 -100 48 -135 0 -16 -10 -18 -115 -18 l-114 0 5 33 c14 80 40 123 84
140 23 9 72 -1 92 -20z"/>
<path d="M2015 1493 c-78 -41 -108 -96 -107 -194 1 -93 43 -157 119 -185 81
-29 167 -5 211 59 34 51 26 52 -21 3 -23 -24 -54 -47 -70 -51 -67 -17 -132 22
-156 94 -15 47 -14 155 3 194 31 74 109 105 175 70 49 -25 60 -47 37 -72 -35
-38 0 -93 39 -61 21 18 18 73 -5 102 -43 55 -159 76 -225 41z"/>
<path d="M3755 1491 c-16 -10 -38 -27 -47 -37 -64 -72 -64 -220 -1 -295 72
-85 186 -76 250 20 l23 34 0 -52 0 -51 63 1 c42 1 54 3 37 8 l-25 7 -3 187 -2
187 -35 0 -35 0 0 -52 0 -53 -25 41 c-42 70 -135 95 -200 55z m144 -16 c41
-21 81 -105 81 -170 0 -94 -65 -185 -132 -185 -12 0 -37 9 -55 20 -56 34 -79
154 -48 258 25 83 85 113 154 77z"/>
<path d="M4381 1493 c-19 -9 -43 -33 -55 -52 l-21 -36 -3 48 -3 47 -62 -1
c-42 -1 -54 -3 -37 -8 l25 -7 0 -179 0 -179 -25 -7 c-14 -4 15 -7 65 -7 50 1
78 3 63 5 l-28 4 0 123 c0 109 3 128 23 167 26 51 82 85 123 75 13 -4 34 -21
44 -39 18 -29 20 -47 18 -177 l-3 -144 -25 -7 c-14 -4 14 -7 65 -7 51 0 79 3
65 7 -25 7 -25 7 -30 161 -3 99 -10 163 -18 177 -29 51 -116 68 -181 36z"/>
<path d="M5949 1487 c-18 -12 -44 -38 -56 -56 l-23 -34 0 52 0 51 -57 -1 c-32
-1 -48 -4 -36 -6 12 -2 23 -11 25 -20 2 -9 2 -91 0 -184 l-3 -168 -27 -4 c-15
-2 14 -4 63 -5 51 0 79 3 65 7 -25 7 -25 7 -25 132 1 134 9 161 59 209 31 28
88 33 112 8 23 -23 33 -87 33 -213 1 -117 -3 -130 -34 -138 -11 -2 18 -5 65
-4 47 0 75 2 63 4 -14 3 -25 14 -29 30 -9 36 2 212 16 248 27 72 98 111 145
81 36 -24 46 -76 43 -221 -3 -128 -3 -129 -28 -136 -14 -4 15 -7 65 -7 50 1
78 3 63 5 l-28 4 0 137 c0 75 -5 154 -11 175 -14 53 -58 79 -121 74 -57 -5
-93 -27 -120 -74 l-21 -35 -13 39 c-8 21 -14 39 -14 40 0 1 -13 9 -30 18 -43
22 -101 19 -141 -8z"/>
<path d="M6655 1492 c-65 -42 -95 -102 -94 -189 1 -94 30 -151 95 -183 75 -39
150 -16 201 59 l23 34 0 -52 0 -51 63 1 c42 1 54 3 37 8 l-25 7 -3 187 -2 187
-35 0 -35 0 0 -52 0 -53 -19 30 c-35 57 -67 78 -123 82 -40 3 -60 -1 -83 -15z
m165 -40 c38 -38 60 -91 60 -147 0 -56 -22 -109 -60 -147 -98 -98 -203 3 -187
179 10 102 48 153 115 153 26 0 43 -9 72 -38z"/>
<path d="M7281 1493 c-18 -9 -45 -35 -60 -57 l-26 -40 -3 52 -3 52 -57 -1
c-40 -1 -50 -3 -32 -8 l25 -7 3 -159 c3 -183 0 -202 -31 -208 -12 -2 16 -4 63
-4 47 0 75 2 63 4 -31 6 -37 37 -30 155 7 120 31 173 90 201 49 24 86 13 110
-34 14 -28 17 -56 15 -174 -3 -139 -3 -139 -28 -146 -14 -4 14 -7 65 -7 51 0
79 3 65 7 -25 7 -25 7 -30 161 -3 99 -10 163 -18 177 -28 51 -116 68 -181 36z"/>
<path d="M5260 1491 l25 -7 5 -161 c5 -153 6 -163 29 -187 30 -32 81 -42 134
-26 44 13 97 62 97 89 0 11 -6 7 -19 -12 -22 -34 -47 -52 -84 -61 -23 -5 -33
-1 -57 23 l-30 29 0 161 0 161 -62 -1 c-43 -1 -55 -3 -38 -8z"/>
<path d="M5532 1493 l27 -4 0 -253 c0 -218 -2 -257 -17 -286 -26 -51 -65 -75
-122 -75 -83 0 -131 54 -96 108 13 19 14 26 3 41 -16 21 -51 15 -61 -10 -10
-25 11 -88 36 -111 69 -62 220 -54 281 15 40 45 46 87 47 340 l0 242 -62 -1
c-35 -1 -51 -4 -36 -6z"/>
</g>
</svg>
