<?xml version="1.0" standalone="no"?>
<!DOCTYPE svg PUBLIC "-//W3C//DTD SVG 20010904//EN"
 "http://www.w3.org/TR/2001/REC-SVG-20010904/DTD/svg10.dtd">
<svg version="1.0" xmlns="http://www.w3.org/2000/svg"
 width="300.000000pt" height="182.000000pt" viewBox="0 0 300.000000 182.000000"
 preserveAspectRatio="xMidYMid meet">
<metadata>
Created by potrace 1.10, written by Peter Selinger 2001-2011
</metadata>
<g transform="translate(0.000000,182.000000) scale(0.100000,-0.100000)"
fill="#000000" stroke="none">
<path d="M955 986 c-33 -6 -62 -12 -65 -13 -65 -11 -120 -29 -117 -37 6 -16
78 -11 88 5 11 18 12 14 9 -119 -2 -105 6 -142 29 -142 3 0 5 44 3 97 -4 104
9 172 33 174 8 1 18 2 23 3 4 1 33 6 65 10 37 5 57 12 54 19 -5 17 -51 18
-122 3z"/>
<path d="M1567 961 c-36 -89 -48 -269 -19 -279 9 -3 12 15 12 66 0 71 26 212
40 212 4 0 11 -47 17 -104 14 -151 44 -175 72 -58 7 29 26 76 42 105 34 62 35
56 17 -106 -8 -81 -8 -111 0 -119 17 -17 19 -11 25 72 4 41 9 102 13 135 6 66
-9 104 -39 92 -16 -6 -77 -115 -77 -139 -1 -7 -8 -26 -16 -43 -8 -16 -12 -22
-9 -11 7 25 -15 188 -27 204 -18 22 -35 13 -51 -27z"/>
<path d="M2185 910 c-15 -29 -13 -50 4 -50 6 0 31 57 31 73 0 18 -21 4 -35
-23z"/>
<path d="M1035 917 c-11 -28 0 -200 13 -205 7 -2 12 5 12 20 0 22 34 88 45 88
2 0 2 -26 -1 -59 -4 -34 -3 -61 3 -64 17 -11 24 115 8 132 -13 13 -18 12 -38
-7 l-23 -21 2 59 c2 57 -10 88 -21 57z"/>
<path d="M1279 871 c-12 -41 -23 -47 -81 -43 -23 2 -70 -56 -66 -81 2 -11 11
-25 21 -31 15 -9 22 -7 37 12 l19 22 3 -22 c2 -12 9 -23 16 -26 7 -2 10 2 6
12 -8 21 5 108 15 101 5 -2 6 -25 4 -50 -5 -36 -2 -46 12 -51 12 -5 23 1 36
17 29 38 23 59 -8 24 l-26 -30 7 40 c10 53 10 52 56 60 53 9 53 29 1 22 -39
-5 -39 -4 -29 19 8 18 8 28 0 36 -7 7 -14 -1 -23 -31z m-89 -105 c-22 -37 -40
-47 -40 -22 0 16 49 70 57 63 3 -3 -5 -22 -17 -41z"/>
<path d="M2178 843 c-2 -5 -5 -36 -7 -70 -2 -52 0 -63 13 -63 13 0 16 12 16
64 0 57 -11 91 -22 69z"/>
<path d="M1919 817 c-13 -29 -29 -36 -29 -13 0 27 -29 26 -44 -2 -14 -26 -15
-26 -16 -4 0 12 -5 22 -11 22 -14 0 -7 -102 7 -107 6 -2 17 15 24 37 16 50 28
51 26 4 -1 -44 19 -56 27 -17 3 15 13 37 21 48 15 19 15 19 16 -11 0 -23 7
-37 27 -49 25 -17 27 -17 40 1 7 10 13 23 14 28 0 6 5 0 12 -14 l11 -25 4 27
c3 24 5 26 23 15 26 -16 24 -21 -16 -37 -19 -8 -35 -20 -35 -28 0 -7 3 -12 8
-10 4 2 29 14 55 26 51 23 57 43 17 52 -33 8 -36 28 -6 41 14 7 26 15 26 19 0
17 -15 19 -36 5 -20 -13 -23 -12 -29 2 -4 13 -13 4 -36 -36 -33 -57 -48 -62
-30 -10 12 35 -2 69 -15 36 -5 -15 -8 -14 -24 6 l-18 22 -13 -28z"/>
<path d="M1380 823 c-51 -18 -54 -113 -3 -113 19 0 63 52 63 75 0 36 -24 51
-60 38z m40 -27 c0 -16 -38 -66 -51 -66 -18 0 -9 49 13 64 28 20 38 20 38 2z"/>
</g>
</svg>
